<svg xmlns="http://www.w3.org/2000/svg" fill-rule="evenodd" stroke-miterlimit="10" viewBox="0 0 1123 461" clip-rule="evenodd">
    <g transform="translate(1.52 4.34)">
        <clipPath id="a">
            <path d="M876 67h142v141.333H876V67zm22 24c0-1.106.892-2 1.993-2h94.014c1.098 0 1.993.898 1.993 2v93.333c0 1.106-.892 2-1.993 2h-94.014c-1.098 0-1.993-.898-1.993-2V91zm-2 0v93.333c0 2.205 1.788 4 3.993 4h94.014c2.207 0 3.993-1.79 3.993-4V91c0-2.205-1.788-4-3.993-4h-94.014c-2.207 0-3.993 1.79-3.993 4z"/>
        </clipPath>
        <g clip-path="url(#a)">
            <clipPath id="b">
                <path d="M897 91c0-1.657 1.338-3 2.993-3h94.014c1.653 0 2.993 1.348 2.993 3v93.333c0 1.657-1.338 3-2.993 3h-94.014c-1.653 0-2.993-1.348-2.993-3V91z"/>
            </clipPath>
            <g clip-path="url(#b)">
                <path fill="#2E3E47" fill-rule="nonzero" d="M897 91c0-1.657 1.338-3 2.993-3h94.014c1.653 0 2.993 1.348 2.993 3v93.333c0 1.657-1.338 3-2.993 3h-94.014c-1.653 0-2.993-1.348-2.993-3V91z"/>
            </g>
        </g>
        <clipPath id="c">
            <path d="M897 91c0-1.657 1.338-3 2.993-3h94.014c1.653 0 2.993 1.348 2.993 3v93.333c0 1.657-1.338 3-2.993 3h-94.014c-1.653 0-2.993-1.348-2.993-3V91z"/>
        </clipPath>
        <g clip-path="url(#c)">
            <path fill="none" stroke="#526B78" stroke-width="4" d="M897 91c0-1.657 1.338-3 2.993-3h94.014c1.653 0 2.993 1.348 2.993 3v93.333c0 1.657-1.338 3-2.993 3h-94.014c-1.653 0-2.993-1.348-2.993-3V91z"/>
        </g>
        <clipPath id="d">
            <path d="M933.044 145.695c0-.585.186-1.072.56-1.46.373-.39.898-.584 1.574-.584.686 0 1.216.2 1.59.59.373.39.56.88.56 1.46s-.187 1.06-.56 1.43c-.374.38-.904.57-1.59.57-.333 0-.633-.05-.9-.15-.268-.1-.493-.24-.674-.42-.182-.18-.32-.39-.417-.63-.096-.24-.143-.5-.143-.78zm12.336-14.547v17.83c0 1.677-.416 2.956-1.25 3.84-.83.882-2.05 1.323-3.654 1.323-.323 0-.656-.02-1-.06-.342-.04-.66-.11-.953-.19v-2.9c.212.05.436.09.674.11.237.02.446.03.628.03.605 0 1.07-.16 1.392-.49.323-.33.485-.87.485-1.64v-17.83h3.678zm-3.996-4.253c0-.565.18-1.034.537-1.408.36-.373.88-.56 1.54-.56s1.18.187 1.55.56c.37.374.55.843.55 1.408 0 .555-.18 1.017-.54 1.385-.36.368-.88.552-1.54.552s-1.18-.184-1.53-.552c-.35-.368-.53-.83-.53-1.385zm17.104 16.18c0-.26-.043-.506-.128-.733-.086-.227-.255-.44-.508-.636-.252-.196-.607-.38-1.067-.552-.46-.172-1.057-.333-1.793-.485-.878-.19-1.678-.41-2.4-.69-.72-.27-1.34-.61-1.854-.99-.514-.39-.916-.85-1.203-1.37-.288-.53-.43-1.13-.43-1.82 0-.67.145-1.3.437-1.9.293-.6.714-1.13 1.264-1.58.55-.46 1.216-.82 1.998-1.09.783-.27 1.658-.4 2.627-.4 1.02 0 1.94.13 2.75.4.81.26 1.5.63 2.07 1.1.57.47 1 1.02 1.3 1.65.3.63.45 1.32.45 2.05h-3.68c0-.32-.06-.62-.18-.92-.12-.3-.3-.56-.54-.79-.24-.23-.54-.42-.9-.55-.36-.14-.77-.21-1.25-.21-.46 0-.86.06-1.21.17-.34.11-.62.27-.85.45-.23.18-.4.4-.51.65-.11.24-.16.5-.16.78 0 .27.05.51.15.72.1.21.28.4.54.57.26.17.6.33 1.04.48.44.14.98.29 1.64.43.95.2 1.8.44 2.55.71.76.27 1.39.6 1.91 1 .52.39.92.86 1.19 1.39s.41 1.17.41 1.91c0 .72-.16 1.39-.47 2-.31.61-.76 1.13-1.34 1.57-.58.44-1.28.78-2.1 1.02s-1.72.36-2.72.36c-1.12 0-2.11-.16-2.97-.48-.86-.32-1.58-.73-2.17-1.25s-1.03-1.1-1.32-1.75c-.3-.65-.44-1.32-.44-1.99h3.57c.03.5.15.93.35 1.27.2.34.46.62.77.83.32.21.67.36 1.06.46.4.09.8.14 1.21.14.97 0 1.71-.19 2.21-.56.51-.37.76-.85.76-1.45z"/>
        </clipPath>
        <g clip-path="url(#d)">
            <path fill="#fff" fill-rule="nonzero" d="M928.044 119.927h39.063v39.214h-39.063z"/>
        </g>
        <clipPath id="e">
            <path d="M997 188h142v142H997V188zm22 23.993c0-1.102.89-1.993 1.99-1.993h94.02c1.1 0 1.99.89 1.99 1.993v94.014c0 1.102-.89 1.993-1.99 1.993h-94.02c-1.1 0-1.99-.89-1.99-1.993v-94.014zm-2 0v94.014c0 2.207 1.79 3.993 3.99 3.993h94.02c2.2 0 3.99-1.787 3.99-3.993v-94.014c0-2.207-1.79-3.993-3.99-3.993h-94.02c-2.2 0-3.99 1.787-3.99 3.993z"/>
        </clipPath>
        <g clip-path="url(#e)">
            <clipPath id="f">
                <path d="M1018 211.993c0-1.653 1.34-2.993 2.99-2.993h94.02c1.65 0 2.99 1.338 2.99 2.993v94.014c0 1.653-1.34 2.993-2.99 2.993h-94.02c-1.65 0-2.99-1.338-2.99-2.993v-94.014z"/>
            </clipPath>
            <g clip-path="url(#f)">
                <path fill="#2E3E47" fill-rule="nonzero" d="M1018 211.993c0-1.653 1.34-2.993 2.99-2.993h94.02c1.65 0 2.99 1.338 2.99 2.993v94.014c0 1.653-1.34 2.993-2.99 2.993h-94.02c-1.65 0-2.99-1.338-2.99-2.993v-94.014z"/>
            </g>
        </g>
        <clipPath id="g">
            <path d="M1018 211.993c0-1.653 1.34-2.993 2.99-2.993h94.02c1.65 0 2.99 1.338 2.99 2.993v94.014c0 1.653-1.34 2.993-2.99 2.993h-94.02c-1.65 0-2.99-1.338-2.99-2.993v-94.014z"/>
        </clipPath>
        <g clip-path="url(#g)">
            <path fill="none" stroke="#526B78" stroke-width="4" d="M1018 211.993c0-1.653 1.34-2.993 2.99-2.993h94.02c1.65 0 2.99 1.338 2.99 2.993v94.014c0 1.653-1.34 2.993-2.99 2.993h-94.02c-1.65 0-2.99-1.338-2.99-2.993v-94.014z"/>
        </g>
        <clipPath id="h">
            <path d="M1040.04 268.17c0-.587.19-1.074.56-1.462.38-.39.9-.583 1.58-.583s1.21.194 1.59.583c.37.388.56.875.56 1.46 0 .576-.19 1.053-.56 1.43-.38.38-.91.57-1.59.57-.33 0-.63-.052-.9-.153-.27-.1-.49-.242-.68-.424-.18-.18-.32-.39-.41-.63-.1-.24-.15-.5-.15-.78zm22.84-6.193c0 1.19-.13 2.296-.41 3.316-.28 1.02-.69 1.9-1.23 2.64-.54.743-1.2 1.323-2 1.742-.79.418-1.69.628-2.71.628-.94 0-1.76-.152-2.47-.454-.71-.31-1.32-.75-1.85-1.32v7.76h-3.67v-22.67h3.39l.15 1.66c.52-.64 1.14-1.12 1.87-1.46.72-.34 1.56-.51 2.53-.51 1.04 0 1.96.2 2.76.6.79.4 1.46.97 2 1.7s.95 1.61 1.23 2.63.41 2.15.41 3.39v.31zm-3.66-.317c0-.737-.07-1.428-.22-2.074-.14-.646-.37-1.21-.67-1.695-.3-.48-.69-.86-1.17-1.14-.47-.28-1.04-.41-1.71-.41-.81 0-1.47.17-2 .5-.52.33-.93.79-1.24 1.36v7.27c.31.58.72 1.04 1.24 1.39.52.35 1.19.52 2.03.52.67 0 1.24-.14 1.71-.43.46-.29.85-.67 1.15-1.16.31-.49.53-1.06.67-1.72.14-.65.21-1.34.21-2.07v-.32zm10.19-8.038l.11 1.892c.57-.696 1.26-1.236 2.07-1.62.81-.383 1.7-.575 2.69-.575.79 0 1.5.1 2.14.32.65.21 1.19.56 1.65 1.05.45.48.8 1.11 1.05 1.89.25.77.37 1.72.37 2.83V270h-3.68v-10.61c0-.566-.06-1.043-.19-1.43-.12-.39-.31-.705-.55-.947-.24-.242-.54-.417-.9-.522-.36-.1-.77-.15-1.23-.15-.76 0-1.42.18-1.98.55-.56.37-1.01.85-1.34 1.47V270h-3.68v-16.378h3.47zm13.18 8.068c0-1.24.15-2.377.46-3.406.3-1.03.74-1.912 1.31-2.65.57-.735 1.26-1.305 2.06-1.71.81-.403 1.72-.605 2.73-.605.99 0 1.84.16 2.55.5.72.34 1.34.82 1.85 1.44l.17-1.65h3.31v15.92c0 1.1-.18 2.08-.54 2.93-.37.86-.87 1.58-1.52 2.16s-1.44 1.03-2.35 1.34c-.91.3-1.91.46-3 .46-.46 0-.96-.05-1.52-.15-.55-.1-1.11-.25-1.68-.47-.56-.22-1.1-.5-1.62-.84-.51-.34-.95-.76-1.31-1.26l1.74-2.21c.6.71 1.26 1.23 1.97 1.54.71.31 1.45.47 2.2.47 1.22 0 2.19-.33 2.9-.99.7-.66 1.06-1.63 1.06-2.92v-1.1c-.52.57-1.12 1.01-1.82 1.31-.7.3-1.5.45-2.42.45-1 0-1.9-.21-2.71-.63-.8-.42-1.48-1-2.05-1.73-.57-.74-1.01-1.61-1.31-2.63-.31-1.02-.46-2.12-.46-3.31v-.32zm3.67.318c0 .726.07 1.41.21 2.05.15.642.38 1.204.69 1.69.32.483.71.864 1.19 1.14.47.28 1.04.418 1.71.418.82 0 1.5-.174 2.02-.523.53-.348.95-.81 1.28-1.385v-7.205c-.33-.575-.75-1.03-1.28-1.362-.53-.33-1.2-.49-1.99-.49-.67 0-1.25.14-1.73.43s-.88.67-1.19 1.15c-.31.49-.54 1.06-.69 1.71-.15.65-.22 1.35-.22 2.08v.32z"/>
        </clipPath>
        <g clip-path="url(#h)">
            <path fill="#fff" fill-rule="nonzero" d="M1035.04 248.32h66.99v33.128h-66.99z"/>
        </g>
        <clipPath id="i">
            <path d="M876 188h142v142H876V188zm22 23.993c0-1.102.89-1.993 1.993-1.993h94.014c1.102 0 1.993.89 1.993 1.993v94.014c0 1.102-.89 1.993-1.993 1.993h-94.014c-1.102 0-1.993-.89-1.993-1.993v-94.014zm-2 0v94.014c0 2.207 1.787 3.993 3.993 3.993h94.014c2.207 0 3.993-1.787 3.993-3.993v-94.014c0-2.207-1.787-3.993-3.993-3.993h-94.014c-2.207 0-3.993 1.787-3.993 3.993z"/>
        </clipPath>
        <g clip-path="url(#i)">
            <clipPath id="j">
                <path d="M897 211.993c0-1.653 1.338-2.993 2.993-2.993h94.014c1.653 0 2.993 1.338 2.993 2.993v94.014c0 1.653-1.338 2.993-2.993 2.993h-94.014c-1.653 0-2.993-1.338-2.993-2.993v-94.014z"/>
            </clipPath>
            <g clip-path="url(#j)">
                <path fill="#2E3E47" fill-rule="nonzero" d="M897 211.993c0-1.653 1.338-2.993 2.993-2.993h94.014c1.653 0 2.993 1.338 2.993 2.993v94.014c0 1.653-1.338 2.993-2.993 2.993h-94.014c-1.653 0-2.993-1.338-2.993-2.993v-94.014z"/>
            </g>
        </g>
        <clipPath id="k">
            <path d="M897 211.993c0-1.653 1.338-2.993 2.993-2.993h94.014c1.653 0 2.993 1.338 2.993 2.993v94.014c0 1.653-1.338 2.993-2.993 2.993h-94.014c-1.653 0-2.993-1.338-2.993-2.993v-94.014z"/>
        </clipPath>
        <g clip-path="url(#k)">
            <path fill="none" stroke="#526B78" stroke-width="4" d="M897 211.993c0-1.653 1.338-2.993 2.993-2.993h94.014c1.653 0 2.993 1.338 2.993 2.993v94.014c0 1.653-1.338 2.993-2.993 2.993h-94.014c-1.653 0-2.993-1.338-2.993-2.993v-94.014z"/>
        </g>
        <clipPath id="l">
            <path d="M923.044 268.17c0-.587.186-1.074.56-1.462.373-.39.898-.583 1.574-.583.686 0 1.216.194 1.59.583.373.388.56.875.56 1.46 0 .576-.187 1.053-.56 1.43-.374.38-.904.57-1.59.57-.333 0-.633-.052-.9-.153-.268-.1-.493-.242-.674-.424-.182-.18-.32-.39-.417-.63-.096-.24-.143-.5-.143-.78zm12.336-14.548v17.83c0 1.676-.416 2.955-1.25 3.838-.83.883-2.05 1.325-3.654 1.325-.323 0-.656-.023-1-.068-.342-.046-.66-.11-.953-.19v-2.906c.212.06.436.09.674.11.237.02.446.03.628.03.605 0 1.07-.16 1.392-.49.323-.33.485-.87.485-1.64v-17.83h3.678zm-3.996-4.253c0-.57.18-1.04.537-1.41.36-.38.88-.56 1.54-.56s1.18.18 1.55.56c.37.37.55.84.55 1.41 0 .55-.18 1.01-.54 1.38-.36.37-.88.55-1.54.55s-1.18-.19-1.53-.55c-.35-.37-.53-.83-.53-1.39zm22.266 12.6c0 1.19-.14 2.29-.416 3.31-.278 1.02-.687 1.9-1.226 2.64-.54.74-1.206 1.32-1.998 1.74-.793.41-1.698.62-2.717.62-.94 0-1.76-.15-2.468-.45-.706-.31-1.322-.75-1.846-1.32v7.76h-3.68V253.6h3.39l.15 1.665c.52-.635 1.15-1.12 1.87-1.46.72-.34 1.56-.507 2.53-.507 1.04 0 1.96.2 2.75.604.79.4 1.46.97 2 1.7s.95 1.61 1.22 2.635c.27 1.02.41 2.15.41 3.39v.315zm-3.663-.32c0-.74-.073-1.43-.22-2.08-.146-.65-.37-1.21-.673-1.7-.303-.49-.692-.87-1.166-1.14-.474-.28-1.044-.42-1.71-.42-.807 0-1.473.16-1.998.5-.525.33-.94.78-1.24 1.36v7.26c.3.57.713 1.03 1.232 1.38.52.35 1.2.52 2.036.52.666 0 1.234-.14 1.703-.43.47-.29.86-.68 1.16-1.17.31-.49.53-1.06.67-1.72.14-.66.21-1.35.21-2.07v-.32zm6.13.03c0-1.24.152-2.38.454-3.41.31-1.03.74-1.91 1.31-2.65.57-.74 1.26-1.31 2.07-1.71.81-.41 1.72-.61 2.73-.61.99 0 1.85.17 2.56.5.72.34 1.33.82 1.85 1.44l.17-1.65h3.32v15.92c0 1.1-.18 2.08-.54 2.93-.36.86-.87 1.58-1.52 2.17s-1.43 1.03-2.35 1.34c-.91.3-1.91.46-3 .46-.45 0-.95-.05-1.51-.15-.55-.1-1.11-.26-1.68-.47-.56-.22-1.1-.5-1.62-.84-.51-.35-.95-.76-1.31-1.26l1.74-2.21c.61.71 1.27 1.23 1.98 1.54.71.31 1.45.47 2.2.47 1.22 0 2.19-.33 2.89-1 .71-.66 1.06-1.63 1.06-2.91v-1.1c-.51.57-1.12 1.01-1.81 1.32-.69.3-1.5.45-2.42.45-.99 0-1.89-.21-2.7-.63-.8-.42-1.49-1-2.06-1.74-.57-.74-1-1.61-1.31-2.63-.3-1.01-.45-2.11-.45-3.3v-.32zm3.663.31c0 .72.073 1.41.22 2.05.146.64.376 1.2.69 1.69.31.48.705.86 1.18 1.14.473.28 1.044.42 1.71.42.827 0 1.503-.18 2.028-.53.525-.35.948-.81 1.27-1.39v-7.21c-.322-.58-.748-1.03-1.278-1.37-.53-.33-1.193-.5-1.99-.5-.666 0-1.24.14-1.726.42-.484.28-.88.67-1.188 1.15-.308.49-.537 1.05-.69 1.7-.15.65-.226 1.34-.226 2.08v.32z"/>
        </clipPath>
        <g clip-path="url(#l)">
            <path fill="#fff" fill-rule="nonzero" d="M918.044 242.4h57.514v39.215h-57.514z"/>
        </g>
        <clipPath id="m">
            <path d="M997 67h142v142H997V67zm22 23.993c0-1.102.89-1.993 1.99-1.993h94.02c1.1 0 1.99.89 1.99 1.993v94.014c0 1.102-.89 1.993-1.99 1.993h-94.02c-1.1 0-1.99-.89-1.99-1.993V90.993zm-2 0v94.014c0 2.207 1.79 3.993 3.99 3.993h94.02c2.2 0 3.99-1.787 3.99-3.993V90.993c0-2.207-1.79-3.993-3.99-3.993h-94.02c-2.2 0-3.99 1.787-3.99 3.993z"/>
        </clipPath>
        <g clip-path="url(#m)">
            <clipPath id="n">
                <path d="M1018 90.993c0-1.653 1.34-2.993 2.99-2.993h94.02c1.65 0 2.99 1.338 2.99 2.993v94.014c0 1.653-1.34 2.993-2.99 2.993h-94.02c-1.65 0-2.99-1.338-2.99-2.993V90.993z"/>
            </clipPath>
            <g clip-path="url(#n)">
                <path fill="#2E3E47" fill-rule="nonzero" d="M1018 90.993c0-1.653 1.34-2.993 2.99-2.993h94.02c1.65 0 2.99 1.338 2.99 2.993v94.014c0 1.653-1.34 2.993-2.99 2.993h-94.02c-1.65 0-2.99-1.338-2.99-2.993V90.993z"/>
            </g>
        </g>
        <clipPath id="o">
            <path d="M1018 90.993c0-1.653 1.34-2.993 2.99-2.993h94.02c1.65 0 2.99 1.338 2.99 2.993v94.014c0 1.653-1.34 2.993-2.99 2.993h-94.02c-1.65 0-2.99-1.338-2.99-2.993V90.993z"/>
        </clipPath>
        <g clip-path="url(#o)">
            <path fill="none" stroke="#526B78" stroke-width="4" d="M1018 90.993c0-1.653 1.34-2.993 2.99-2.993h94.02c1.65 0 2.99 1.338 2.99 2.993v94.014c0 1.653-1.34 2.993-2.99 2.993h-94.02c-1.65 0-2.99-1.338-2.99-2.993V90.993z"/>
        </g>
        <clipPath id="p">
            <path d="M1039.04 147.17c0-.587.19-1.074.56-1.462.38-.39.9-.583 1.58-.583s1.21.194 1.59.583c.37.388.56.875.56 1.46 0 .576-.19 1.053-.56 1.43-.38.38-.91.57-1.59.57-.33 0-.63-.052-.9-.153-.27-.1-.49-.242-.68-.424-.18-.18-.32-.39-.41-.63-.1-.24-.15-.5-.15-.78zm15.23-.804c.44 0 .86-.068 1.25-.204.39-.136.73-.328 1.01-.575.29-.248.52-.543.7-.886.18-.34.28-.71.3-1.12h3.46c-.03.79-.22 1.53-.58 2.23s-.84 1.31-1.44 1.83-1.3.93-2.09 1.23c-.8.3-1.66.45-2.56.45-1.26 0-2.36-.21-3.3-.65-.93-.43-1.71-1.02-2.33-1.77-.62-.74-1.08-1.62-1.38-2.61-.3-1-.46-2.06-.46-3.18v-.53c0-1.12.16-2.18.46-3.18.3-1 .76-1.87 1.38-2.62.62-.75 1.4-1.34 2.33-1.78.92-.43 2.02-.65 3.28-.65.99 0 1.89.15 2.7.46.82.31 1.51.73 2.09 1.27.58.55 1.04 1.2 1.36 1.95.33.76.51 1.59.54 2.5h-3.46c-.02-.43-.11-.85-.27-1.24-.16-.39-.37-.74-.65-1.03-.28-.29-.61-.52-1.01-.69-.39-.17-.83-.26-1.33-.26-.75 0-1.36.16-1.85.47-.48.31-.86.71-1.15 1.21-.28.49-.47 1.06-.58 1.69-.1.64-.16 1.28-.16 1.93v.53c0 .66.06 1.31.16 1.94.11.63.3 1.19.58 1.69.29.5.67.9 1.15 1.2.48.31 1.09.46 1.85.46zm18.68-1.816c0-.263-.04-.507-.13-.734-.08-.227-.25-.44-.51-.636-.25-.197-.6-.38-1.06-.553-.46-.17-1.06-.333-1.8-.484-.87-.182-1.67-.41-2.4-.68-.72-.273-1.34-.604-1.85-.992-.52-.38-.92-.84-1.2-1.37-.29-.52-.43-1.13-.43-1.81 0-.66.14-1.3.43-1.9.3-.6.72-1.12 1.27-1.58.55-.45 1.21-.81 2-1.08.78-.26 1.65-.4 2.62-.4 1.02 0 1.94.14 2.75.4.81.27 1.5.64 2.07 1.11.56.47.99 1.02 1.29 1.66.3.64.45 1.33.45 2.06h-3.68c0-.31-.06-.62-.18-.91-.13-.3-.31-.56-.55-.79-.24-.23-.54-.41-.9-.55-.36-.14-.77-.2-1.25-.2-.46 0-.87.06-1.21.18-.34.12-.63.27-.85.46-.23.19-.4.41-.51.65-.11.25-.17.51-.17.78 0 .28.05.52.15.73.1.21.28.41.54.58.26.17.6.33 1.04.47.43.15.98.3 1.63.44.95.2 1.8.44 2.55.71.76.28 1.39.61 1.91 1 .52.4.92.86 1.19 1.4.27.54.41 1.17.41 1.91 0 .73-.16 1.39-.47 2-.31.61-.76 1.13-1.34 1.57-.58.44-1.28.78-2.1 1.03-.81.24-1.72.36-2.72.36-1.12 0-2.11-.16-2.98-.47-.86-.31-1.58-.73-2.17-1.25-.58-.51-1.03-1.09-1.32-1.74-.3-.65-.45-1.31-.45-1.99h3.57c.03.51.15.93.35 1.27.2.35.46.62.77.83.32.22.67.37 1.06.47.4.1.8.14 1.21.14.97 0 1.71-.18 2.21-.55.51-.36.76-.85.76-1.44zm16 0c0-.263-.04-.507-.13-.734-.08-.227-.25-.44-.51-.636-.25-.197-.61-.38-1.06-.553-.46-.17-1.06-.333-1.8-.484-.87-.182-1.67-.41-2.4-.68-.72-.273-1.34-.604-1.85-.992-.52-.38-.92-.84-1.2-1.37-.29-.52-.44-1.13-.44-1.81 0-.66.15-1.3.44-1.9.3-.6.72-1.12 1.27-1.58.55-.45 1.21-.81 2-1.08.78-.26 1.65-.4 2.62-.4 1.02 0 1.94.14 2.75.4.81.27 1.5.64 2.06 1.11.57.47 1 1.02 1.3 1.66.3.64.45 1.33.45 2.06h-3.68c0-.31-.06-.62-.18-.91-.13-.3-.31-.56-.55-.79-.24-.23-.54-.41-.9-.55-.36-.14-.77-.2-1.25-.2-.46 0-.87.06-1.21.18-.34.12-.63.27-.85.46-.23.19-.4.41-.51.65-.11.25-.17.51-.17.78 0 .28.05.52.15.73.1.21.28.41.54.58.26.17.6.33 1.04.47.43.15.98.3 1.63.44.95.2 1.8.44 2.55.71.76.28 1.39.61 1.91 1 .52.4.92.86 1.19 1.4.27.54.41 1.17.41 1.91 0 .73-.16 1.39-.47 2-.31.61-.76 1.13-1.34 1.57-.58.44-1.28.78-2.1 1.03-.82.24-1.72.36-2.72.36-1.12 0-2.11-.16-2.98-.47-.86-.31-1.58-.73-2.17-1.25-.59-.51-1.03-1.09-1.32-1.74-.3-.65-.45-1.31-.45-1.99h3.57c.03.51.15.93.35 1.27.2.35.46.62.77.83.32.22.67.37 1.06.47.39.1.8.14 1.21.14.97 0 1.71-.18 2.21-.55.51-.36.76-.85.76-1.44z"/>
        </clipPath>
        <g clip-path="url(#p)">
            <path fill="#fff" fill-rule="nonzero" d="M1034.04 127.32h63.523v26.98h-63.523z"/>
        </g>
        <clipPath id="q">
            <path d="M-12-21h113V88H-12V-21zM10 3.01C10 1.896 10.894 1 12.005 1h64.99C78.105 1 79 1.894 79 3.01v60.98c0 1.113-.894 2.01-2.005 2.01h-64.99C10.895 66 10 65.106 10 63.99V3.01zm-2 0v60.98C8 66.21 9.79 68 12.005 68h64.99C79.21 68 81 66.207 81 63.99V3.01C81 .79 79.21-1 76.995-1h-64.99C9.79-1 8 .793 8 3.01z"/>
        </clipPath>
        <g clip-path="url(#q)">
            <clipPath id="r">
                <path d="M9 3.01C9 1.346 10.34 0 12.005 0h64.99C78.655 0 80 1.338 80 3.01v60.98c0 1.663-1.34 3.01-3.005 3.01h-64.99C10.345 67 9 65.662 9 63.99V3.01z"/>
            </clipPath>
            <g clip-path="url(#r)">
                <path fill="#2E3E47" fill-rule="nonzero" d="M9 3.01C9 1.346 10.34 0 12.005 0h64.99C78.655 0 80 1.338 80 3.01v60.98c0 1.663-1.34 3.01-3.005 3.01h-64.99C10.345 67 9 65.662 9 63.99V3.01z"/>
            </g>
        </g>
        <clipPath id="s">
            <path d="M9 3.01C9 1.346 10.34 0 12.005 0h64.99C78.655 0 80 1.338 80 3.01v60.98c0 1.663-1.34 3.01-3.005 3.01h-64.99C10.345 67 9 65.662 9 63.99V3.01z"/>
        </clipPath>
        <g clip-path="url(#s)">
            <path fill="none" stroke="#526B78" stroke-width="4" d="M9 3.01C9 1.346 10.34 0 12.005 0h64.99C78.655 0 80 1.338 80 3.01v60.98c0 1.663-1.34 3.01-3.005 3.01h-64.99C10.345 67 9 65.662 9 63.99V3.01z"/>
        </g>
        <clipPath id="t">
            <path d="M34.45 39.7c0-.415.133-.76.398-1.036s.637-.414 1.117-.414c.487 0 .863.138 1.128.414.265.275.397.62.397 1.036 0 .408-.132.747-.397 1.015-.265.27-.64.403-1.128.403-.236 0-.45-.036-.64-.107-.19-.07-.348-.17-.477-.3-.13-.13-.228-.28-.296-.45-.068-.17-.102-.36-.102-.56zm8.755-10.323V42.03c0 1.19-.295 2.098-.886 2.724-.6.627-1.46.94-2.6.94-.23 0-.47-.016-.71-.048-.25-.032-.47-.077-.68-.134V43.45c.15.035.31.06.47.074.17.015.31.022.44.022.43 0 .76-.116.99-.35.23-.232.34-.62.34-1.165V29.38h2.61zm-2.836-3.02c0-.4.12-.733.38-.998.25-.27.61-.4 1.09-.4.47 0 .84.13 1.09.39.25.26.38.59.38 1 0 .39-.13.72-.39.98s-.63.39-1.1.39c-.48 0-.84-.13-1.09-.4-.26-.26-.38-.59-.38-.98zM52.5 37.842c0-.186-.03-.36-.09-.52-.062-.162-.182-.313-.36-.452-.18-.14-.433-.27-.76-.392-.325-.122-.75-.237-1.272-.344-.622-.13-1.19-.29-1.7-.484-.51-.193-.95-.427-1.316-.703-.365-.276-.65-.6-.854-.972-.202-.373-.304-.802-.304-1.29 0-.472.103-.92.31-1.348.21-.426.508-.8.898-1.122.39-.322.863-.578 1.418-.768.556-.19 1.177-.285 1.865-.285.723 0 1.373.095 1.95.285.576.19 1.065.45 1.466.784.4.34.71.73.92 1.18.22.45.32.94.32 1.46h-2.61c0-.22-.04-.43-.13-.65-.08-.21-.21-.4-.38-.56-.17-.16-.38-.29-.64-.39-.25-.09-.55-.14-.88-.14-.33 0-.61.04-.86.13-.24.09-.44.19-.6.33-.16.13-.28.29-.36.46-.08.18-.11.36-.11.56 0 .2.04.37.11.52.08.15.2.29.38.41.19.12.43.24.74.34.31.11.7.21 1.16.31.68.14 1.28.31 1.81.5.54.2.99.43 1.36.71.37.28.65.61.85.99.2.38.29.83.29 1.35 0 .52-.11.99-.33 1.42-.22.43-.54.8-.95 1.11-.41.31-.91.55-1.49.73-.58.17-1.22.26-1.93.26-.79 0-1.5-.11-2.11-.34-.61-.22-1.12-.52-1.54-.89-.41-.36-.73-.78-.94-1.24-.21-.46-.31-.93-.31-1.41H48c.023.36.105.66.248.91.143.25.326.44.548.59.224.15.475.26.754.33.28.07.566.11.86.11.687 0 1.21-.13 1.568-.4.36-.26.538-.6.538-1.03z"/>
        </clipPath>
        <g clip-path="url(#t)">
            <path fill="#fff" fill-rule="nonzero" d="M29.45 19.962h30.625v30.732H29.45z"/>
        </g>
        <clipPath id="u">
            <path d="M99 33h113v109H99V33zm22 24.01c0-1.113.894-2.01 2.005-2.01h64.99c1.11 0 2.005.894 2.005 2.01v60.98c0 1.113-.894 2.01-2.005 2.01h-64.99c-1.11 0-2.005-.894-2.005-2.01V57.01zm-2 0v60.98c0 2.22 1.79 4.01 4.005 4.01h64.99c2.216 0 4.005-1.793 4.005-4.01V57.01c0-2.22-1.79-4.01-4.005-4.01h-64.99C120.79 53 119 54.793 119 57.01z"/>
        </clipPath>
        <g clip-path="url(#u)">
            <clipPath id="v">
                <path d="M120 57.01c0-1.663 1.34-3.01 3.005-3.01h64.99c1.66 0 3.005 1.338 3.005 3.01v60.98c0 1.663-1.34 3.01-3.005 3.01h-64.99c-1.66 0-3.005-1.338-3.005-3.01V57.01z"/>
            </clipPath>
            <g clip-path="url(#v)">
                <path fill="#2E3E47" fill-rule="nonzero" d="M120 57.01c0-1.663 1.34-3.01 3.005-3.01h64.99c1.66 0 3.005 1.338 3.005 3.01v60.98c0 1.663-1.34 3.01-3.005 3.01h-64.99c-1.66 0-3.005-1.338-3.005-3.01V57.01z"/>
            </g>
        </g>
        <clipPath id="w">
            <path d="M120 57.01c0-1.663 1.34-3.01 3.005-3.01h64.99c1.66 0 3.005 1.338 3.005 3.01v60.98c0 1.663-1.34 3.01-3.005 3.01h-64.99c-1.66 0-3.005-1.338-3.005-3.01V57.01z"/>
        </clipPath>
        <g clip-path="url(#w)">
            <path fill="none" stroke="#526B78" stroke-width="4" d="M120 57.01c0-1.663 1.34-3.01 3.005-3.01h64.99c1.66 0 3.005 1.338 3.005 3.01v60.98c0 1.663-1.34 3.01-3.005 3.01h-64.99c-1.66 0-3.005-1.338-3.005-3.01V57.01z"/>
        </g>
        <clipPath id="x">
            <path d="M145.45 93.7c0-.415.133-.76.398-1.036s.637-.414 1.117-.414c.487 0 .863.138 1.128.414.265.275.397.62.397 1.036 0 .408-.132.747-.397 1.015-.265.27-.64.403-1.128.403-.236 0-.45-.036-.64-.107-.19-.07-.348-.17-.477-.3-.13-.13-.228-.28-.296-.45-.068-.17-.102-.36-.102-.56zm8.755-10.323V96.03c0 1.19-.295 2.098-.886 2.724-.6.627-1.46.94-2.6.94-.23 0-.47-.016-.71-.048-.25-.032-.47-.077-.68-.134V97.45c.15.035.31.06.47.074.17.015.31.022.44.022.43 0 .76-.116.99-.35.23-.232.34-.62.34-1.165V83.38h2.61zm-2.836-3.02c0-.4.12-.733.38-.998.25-.27.61-.4 1.09-.4.47 0 .84.13 1.09.39.25.26.38.59.38 1 0 .39-.13.72-.39.98s-.63.39-1.1.39c-.48 0-.84-.13-1.09-.4-.26-.26-.38-.59-.38-.98zm12.13 11.485c0-.186-.03-.36-.1-.52-.06-.162-.18-.313-.36-.452-.18-.14-.43-.27-.76-.392s-.75-.237-1.28-.344c-.62-.13-1.19-.29-1.7-.484-.51-.193-.95-.427-1.32-.703-.37-.276-.65-.6-.85-.972-.21-.373-.31-.802-.31-1.29 0-.472.1-.92.31-1.348.21-.426.51-.8.9-1.122.39-.322.86-.578 1.42-.768.55-.19 1.17-.285 1.86-.285.72 0 1.37.095 1.95.285.57.19 1.06.45 1.46.784.4.34.71.73.92 1.18.21.45.31.94.31 1.46h-2.61c0-.22-.05-.43-.13-.65-.09-.21-.22-.4-.39-.56-.18-.16-.39-.29-.64-.39-.26-.09-.55-.14-.89-.14-.33 0-.62.04-.86.13-.25.09-.45.19-.61.33-.16.13-.28.29-.36.46-.08.18-.12.36-.12.56 0 .2.03.37.11.52.07.15.2.29.38.41s.43.24.73.34c.31.11.69.21 1.16.31.67.14 1.28.31 1.81.5.53.2.98.43 1.35.71.37.28.65.61.84.99.19.38.29.83.29 1.35 0 .52-.11.99-.34 1.42-.22.43-.54.8-.95 1.11-.41.31-.91.55-1.49.73-.58.17-1.23.26-1.94.26-.8 0-1.5-.11-2.11-.34-.62-.22-1.13-.52-1.55-.89-.42-.36-.73-.78-.94-1.24-.21-.46-.32-.93-.32-1.41h2.53c.02.36.1.66.24.91.14.25.326.44.55.59.22.15.47.26.75.33s.566.11.86.11c.69 0 1.21-.13 1.57-.4.36-.26.54-.6.54-1.03z"/>
        </clipPath>
        <g clip-path="url(#x)">
            <path fill="#fff" fill-rule="nonzero" d="M140.45 73.962h30.625v30.732H140.45z"/>
        </g>
        <clipPath id="y">
            <path d="M99 146h113v109H99V146zm22 24.01c0-1.113.894-2.01 2.005-2.01h64.99c1.11 0 2.005.894 2.005 2.01v60.98c0 1.113-.894 2.01-2.005 2.01h-64.99c-1.11 0-2.005-.894-2.005-2.01v-60.98zm-2 0v60.98c0 2.22 1.79 4.01 4.005 4.01h64.99c2.216 0 4.005-1.793 4.005-4.01v-60.98c0-2.22-1.79-4.01-4.005-4.01h-64.99c-2.216 0-4.005 1.793-4.005 4.01z"/>
        </clipPath>
        <g clip-path="url(#y)">
            <clipPath id="z">
                <path d="M120 170.01c0-1.663 1.34-3.01 3.005-3.01h64.99c1.66 0 3.005 1.338 3.005 3.01v60.98c0 1.663-1.34 3.01-3.005 3.01h-64.99c-1.66 0-3.005-1.338-3.005-3.01v-60.98z"/>
            </clipPath>
            <g clip-path="url(#z)">
                <path fill="#2E3E47" fill-rule="nonzero" d="M120 170.01c0-1.663 1.34-3.01 3.005-3.01h64.99c1.66 0 3.005 1.338 3.005 3.01v60.98c0 1.663-1.34 3.01-3.005 3.01h-64.99c-1.66 0-3.005-1.338-3.005-3.01v-60.98z"/>
            </g>
        </g>
        <clipPath id="A">
            <path d="M120 170.01c0-1.663 1.34-3.01 3.005-3.01h64.99c1.66 0 3.005 1.338 3.005 3.01v60.98c0 1.663-1.34 3.01-3.005 3.01h-64.99c-1.66 0-3.005-1.338-3.005-3.01v-60.98z"/>
        </clipPath>
        <g clip-path="url(#A)">
            <path fill="none" stroke="#526B78" stroke-width="4" d="M120 170.01c0-1.663 1.34-3.01 3.005-3.01h64.99c1.66 0 3.005 1.338 3.005 3.01v60.98c0 1.663-1.34 3.01-3.005 3.01h-64.99c-1.66 0-3.005-1.338-3.005-3.01v-60.98z"/>
        </g>
        <clipPath id="B">
            <path d="M145.45 206.7c0-.415.133-.76.398-1.036s.637-.414 1.117-.414c.487 0 .863.138 1.128.414.265.275.397.62.397 1.036 0 .408-.132.747-.397 1.015-.265.27-.64.403-1.128.403-.236 0-.45-.036-.64-.107-.19-.07-.348-.17-.477-.3-.13-.13-.228-.28-.296-.45-.068-.17-.102-.36-.102-.56zm9.303-13.148v2.825h2.052v1.934h-2.052v6.49c0 .27.03.48.086.65.05.17.14.29.24.38.1.09.23.15.38.18.15.04.31.05.49.05s.35-.01.52-.04c.17-.02.3-.04.39-.07v2.02c-.21.06-.45.12-.73.17-.28.06-.61.08-1 .08-.43 0-.83-.05-1.2-.17-.37-.11-.69-.3-.96-.56-.27-.25-.48-.59-.63-1.01-.15-.41-.23-.92-.23-1.52v-6.64h-1.91v-1.93h1.91v-2.82h2.61zm10.56 11.29c0-.186-.03-.36-.092-.52-.06-.162-.18-.313-.36-.452-.17-.14-.43-.27-.75-.392s-.75-.237-1.27-.344c-.62-.13-1.19-.29-1.7-.484-.51-.193-.95-.427-1.31-.703-.36-.276-.65-.6-.85-.972-.2-.373-.3-.803-.3-1.29 0-.472.11-.92.31-1.348.21-.426.51-.8.9-1.122.39-.322.87-.578 1.42-.768.56-.19 1.18-.285 1.87-.285.72 0 1.37.095 1.95.285.58.19 1.07.45 1.47.784.4.34.71.73.92 1.18.21.45.32.94.32 1.46h-2.61c0-.22-.04-.43-.13-.65-.08-.21-.21-.4-.38-.56-.17-.16-.38-.29-.64-.39-.25-.09-.55-.14-.88-.14-.33 0-.62.04-.86.13s-.45.19-.61.33c-.16.14-.28.29-.36.46-.08.18-.12.36-.12.56 0 .2.04.37.11.52.07.15.2.29.38.41s.43.24.74.34c.31.11.7.21 1.16.31.67.14 1.28.31 1.81.5.54.2.99.43 1.36.71.37.28.65.61.84.99.2.38.29.83.29 1.35 0 .52-.11.99-.33 1.42-.22.43-.54.8-.95 1.11-.41.31-.91.55-1.49.73-.58.17-1.22.26-1.93.26-.79 0-1.5-.11-2.11-.34-.61-.22-1.13-.52-1.54-.89-.42-.36-.73-.78-.94-1.24-.22-.46-.32-.93-.32-1.41h2.53c.02.36.1.66.25.91s.33.44.55.59c.23.15.48.26.76.33s.57.11.86.11c.69 0 1.21-.13 1.57-.4s.54-.6.54-1.03z"/>
        </clipPath>
        <g clip-path="url(#B)">
            <path fill="#fff" fill-rule="nonzero" d="M140.45 188.552h32.43v24.663h-32.43z"/>
        </g>
        <clipPath id="C">
            <path d="M-13 313H96v109H-13V313zm22 24.01c0-1.114.894-2.01 2.01-2.01h60.98c1.114 0 2.01.894 2.01 2.01v60.98c0 1.114-.894 2.01-2.01 2.01H11.01c-1.114 0-2.01-.894-2.01-2.01v-60.98zm-2 0v60.98c0 2.22 1.792 4.01 4.01 4.01h60.98c2.22 0 4.01-1.792 4.01-4.01v-60.98c0-2.22-1.792-4.01-4.01-4.01H11.01C8.79 333 7 334.792 7 337.01z"/>
        </clipPath>
        <g clip-path="url(#C)">
            <clipPath id="D">
                <path d="M8 337.01c0-1.663 1.338-3.01 3.01-3.01h60.98c1.663 0 3.01 1.338 3.01 3.01v60.98c0 1.663-1.338 3.01-3.01 3.01H11.01C9.346 401 8 399.662 8 397.99v-60.98z"/>
            </clipPath>
            <g clip-path="url(#D)">
                <path fill="#2E3E47" fill-rule="nonzero" d="M8 337.01c0-1.663 1.338-3.01 3.01-3.01h60.98c1.663 0 3.01 1.338 3.01 3.01v60.98c0 1.663-1.338 3.01-3.01 3.01H11.01C9.346 401 8 399.662 8 397.99v-60.98z"/>
            </g>
        </g>
        <clipPath id="E">
            <path d="M8 337.01c0-1.663 1.338-3.01 3.01-3.01h60.98c1.663 0 3.01 1.338 3.01 3.01v60.98c0 1.663-1.338 3.01-3.01 3.01H11.01C9.346 401 8 399.662 8 397.99v-60.98z"/>
        </clipPath>
        <g clip-path="url(#E)">
            <path fill="none" stroke="#526B78" stroke-width="4" d="M8 337.01c0-1.663 1.338-3.01 3.01-3.01h60.98c1.663 0 3.01 1.338 3.01 3.01v60.98c0 1.663-1.338 3.01-3.01 3.01H11.01C9.346 401 8 399.662 8 397.99v-60.98z"/>
        </g>
        <clipPath id="F">
            <path d="M16.45 373.7c0-.415.133-.76.398-1.036s.637-.414 1.117-.414c.487 0 .863.138 1.128.414.265.275.397.62.397 1.036 0 .408-.132.747-.397 1.015-.265.27-.64.403-1.128.403-.236 0-.45-.036-.64-.107-.19-.07-.348-.17-.477-.3-.13-.13-.228-.28-.296-.45-.068-.17-.102-.36-.102-.56zm12.547-1.858c0-.186-.03-.36-.09-.52-.062-.162-.182-.313-.36-.452-.18-.14-.433-.27-.758-.392-.33-.122-.76-.237-1.28-.344-.63-.13-1.19-.29-1.71-.484-.51-.193-.95-.428-1.32-.703-.37-.276-.65-.6-.86-.972-.2-.373-.31-.802-.31-1.29 0-.472.1-.92.31-1.348.21-.426.5-.8.89-1.122.39-.322.86-.578 1.42-.768.55-.19 1.18-.285 1.86-.285.72 0 1.37.095 1.95.285.57.19 1.06.45 1.46.784.4.34.71.73.92 1.18.21.45.32.94.32 1.46h-2.61c0-.22-.05-.43-.13-.65-.09-.21-.22-.4-.39-.56-.17-.16-.38-.29-.64-.39-.25-.09-.55-.14-.88-.14-.33 0-.62.04-.86.13-.25.09-.45.19-.61.33-.16.13-.28.29-.36.46-.08.18-.12.36-.12.56 0 .2.04.37.11.52.07.15.2.29.38.41s.43.24.74.34c.31.11.69.21 1.16.31.67.15 1.27.31 1.81.51.53.2.98.43 1.35.71.37.28.65.61.84.99.19.38.29.83.29 1.35 0 .52-.11.99-.33 1.42-.22.43-.54.8-.95 1.11-.41.31-.91.55-1.49.73-.58.18-1.23.26-1.94.26-.8 0-1.5-.11-2.11-.34-.62-.22-1.13-.52-1.54-.88-.42-.36-.73-.78-.94-1.24-.21-.46-.32-.93-.32-1.41h2.53c.02.36.1.66.24.9.15.24.33.44.55.59.22.15.48.26.75.32.28.07.57.11.86.11.69 0 1.21-.13 1.57-.39.36-.26.54-.6.54-1.03zM40.78 375c-.07-.136-.13-.297-.176-.483-.047-.187-.088-.387-.124-.602-.17.18-.363.347-.574.505-.21.157-.444.295-.698.414-.255.118-.53.21-.828.28-.297.067-.614.1-.95.1-.58 0-1.114-.087-1.6-.262-.488-.176-.905-.42-1.252-.73-.348-.312-.62-.68-.817-1.102-.19-.422-.29-.88-.29-1.375 0-.623.12-1.174.36-1.654s.58-.88 1.04-1.2c.45-.32 1.01-.57 1.66-.73.66-.17 1.4-.25 2.24-.25h1.64v-.76c0-.6-.17-1.08-.5-1.44-.33-.36-.85-.54-1.53-.54-.31 0-.59.04-.84.12-.25.08-.46.2-.64.34s-.31.31-.41.5c-.1.2-.14.4-.14.63h-2.61c0-.46.12-.9.34-1.32.23-.42.55-.8.97-1.14.42-.33.92-.6 1.51-.8.59-.2 1.25-.3 1.98-.3.66 0 1.26.09 1.81.26s1.03.42 1.43.75c.4.34.71.75.94 1.25.22.5.34 1.08.34 1.75v5.16c0 1.05.15 1.88.44 2.51v.18h-2.7zm-2.867-1.88c.3 0 .582-.04.843-.118.262-.08.498-.183.71-.312.21-.128.395-.277.553-.445.15-.17.28-.34.37-.51v-2.192h-1.41c-.97 0-1.7.168-2.18.505-.49.336-.73.813-.73 1.43 0 .235.04.453.11.654.08.2.19.374.35.52.15.148.35.262.57.345.22.082.49.123.79.123zm14.34-1.278c0-.186-.03-.36-.09-.52-.06-.162-.18-.313-.36-.452-.18-.14-.432-.27-.758-.392-.325-.122-.75-.237-1.273-.344-.623-.13-1.19-.29-1.702-.484-.512-.193-.95-.428-1.316-.703-.365-.276-.65-.6-.854-.972-.204-.373-.306-.802-.306-1.29 0-.472.104-.92.31-1.348.21-.426.508-.8.898-1.122.39-.322.863-.578 1.418-.768.555-.19 1.176-.285 1.864-.285.723 0 1.373.095 1.95.285.576.19 1.065.45 1.466.784.4.34.707.73.918 1.18.212.45.317.94.317 1.46h-2.61c0-.22-.043-.43-.13-.65-.085-.21-.214-.4-.386-.56-.18-.16-.39-.29-.64-.39-.26-.09-.55-.14-.89-.14-.33 0-.62.04-.86.13-.25.09-.45.19-.61.33-.16.13-.28.29-.36.46-.08.18-.12.36-.12.56 0 .2.03.37.1.52.07.15.2.29.38.41s.43.24.73.34c.31.11.69.21 1.16.31.67.15 1.27.31 1.81.51.53.2.98.43 1.35.71.37.28.65.61.84.99.19.38.29.83.29 1.35 0 .52-.11.99-.33 1.42-.22.43-.54.8-.95 1.11-.41.31-.91.55-1.49.73-.58.18-1.23.26-1.94.26-.79 0-1.5-.11-2.11-.34-.61-.22-1.13-.52-1.54-.88-.42-.36-.73-.78-.94-1.24-.21-.46-.32-.93-.32-1.41h2.53c.02.36.1.66.24.9.14.24.32.44.55.59.22.15.47.26.75.32.28.07.56.11.86.11.69 0 1.21-.13 1.57-.39.36-.26.53-.6.53-1.03zm11.355 0c0-.186-.03-.36-.09-.52-.062-.162-.182-.313-.36-.452-.18-.14-.432-.27-.758-.392s-.75-.237-1.273-.344c-.623-.13-1.19-.29-1.703-.484-.512-.193-.95-.428-1.316-.703-.365-.276-.65-.6-.854-.972-.204-.373-.306-.802-.306-1.29 0-.472.104-.92.312-1.348.207-.426.506-.8.897-1.122.39-.322.863-.578 1.418-.768.555-.19 1.176-.285 1.863-.285.724 0 1.374.095 1.95.285.577.19 1.065.45 1.466.784.402.34.708.73.92 1.18.21.45.316.94.316 1.46h-2.61c0-.22-.043-.43-.13-.65-.085-.21-.214-.4-.386-.56-.172-.16-.385-.29-.64-.39-.254-.09-.55-.14-.886-.14-.33 0-.615.04-.86.13-.242.09-.445.19-.606.33-.16.13-.28.29-.36.46-.078.18-.118.36-.118.56 0 .2.036.37.108.52.07.15.198.29.38.41.184.12.43.24.737.34.3.11.69.21 1.16.31.67.15 1.27.31 1.81.51.53.2.98.43 1.35.71.37.28.65.61.84.99.19.38.29.83.29 1.35 0 .52-.11.99-.34 1.42-.22.43-.54.8-.95 1.11-.42.31-.91.55-1.49.73-.58.18-1.23.26-1.93.26-.8 0-1.5-.11-2.11-.34-.62-.22-1.13-.52-1.55-.88-.42-.36-.73-.78-.94-1.24-.21-.46-.32-.93-.32-1.41h2.53c.02.36.1.66.24.9s.32.44.55.59c.22.15.47.26.75.32s.56.11.86.11c.68 0 1.21-.13 1.56-.39.36-.26.54-.6.54-1.03z"/>
        </clipPath>
        <g clip-path="url(#F)">
            <path fill="#fff" fill-rule="nonzero" d="M11.45 358.162h59.726v22.053H11.45z"/>
        </g>
        <clipPath id="G">
            <path d="M99 259h109v109H99V259zm22 24.01c0-1.114.894-2.01 2.01-2.01h60.98c1.114 0 2.01.894 2.01 2.01v60.98c0 1.114-.894 2.01-2.01 2.01h-60.98c-1.114 0-2.01-.894-2.01-2.01v-60.98zm-2 0v60.98c0 2.22 1.792 4.01 4.01 4.01h60.98c2.22 0 4.01-1.792 4.01-4.01v-60.98c0-2.22-1.792-4.01-4.01-4.01h-60.98c-2.22 0-4.01 1.792-4.01 4.01z"/>
        </clipPath>
        <g clip-path="url(#G)">
            <clipPath id="H">
                <path d="M120 283.01c0-1.663 1.338-3.01 3.01-3.01h60.98c1.663 0 3.01 1.338 3.01 3.01v60.98c0 1.663-1.338 3.01-3.01 3.01h-60.98c-1.663 0-3.01-1.338-3.01-3.01v-60.98z"/>
            </clipPath>
            <g clip-path="url(#H)">
                <path fill="#2E3E47" fill-rule="nonzero" d="M120 283.01c0-1.663 1.338-3.01 3.01-3.01h60.98c1.663 0 3.01 1.338 3.01 3.01v60.98c0 1.663-1.338 3.01-3.01 3.01h-60.98c-1.663 0-3.01-1.338-3.01-3.01v-60.98z"/>
            </g>
        </g>
        <clipPath id="I">
            <path d="M120 283.01c0-1.663 1.338-3.01 3.01-3.01h60.98c1.663 0 3.01 1.338 3.01 3.01v60.98c0 1.663-1.338 3.01-3.01 3.01h-60.98c-1.663 0-3.01-1.338-3.01-3.01v-60.98z"/>
        </clipPath>
        <g clip-path="url(#I)">
            <path fill="none" stroke="#526B78" stroke-width="4" d="M120 283.01c0-1.663 1.338-3.01 3.01-3.01h60.98c1.663 0 3.01 1.338 3.01 3.01v60.98c0 1.663-1.338 3.01-3.01 3.01h-60.98c-1.663 0-3.01-1.338-3.01-3.01v-60.98z"/>
        </g>
        <clipPath id="J">
            <path d="M128.45 319.7c0-.415.133-.76.398-1.036s.637-.414 1.117-.414c.487 0 .863.138 1.128.414.265.275.397.62.397 1.036 0 .408-.132.747-.397 1.015-.265.27-.64.403-1.128.403-.236 0-.45-.036-.64-.107-.19-.07-.348-.17-.477-.3-.13-.13-.228-.28-.296-.45-.068-.17-.102-.36-.102-.56zm12.547-1.858c0-.186-.03-.36-.09-.52-.062-.162-.182-.313-.36-.452-.18-.14-.433-.27-.758-.393-.33-.12-.76-.236-1.28-.343-.63-.13-1.19-.29-1.71-.484-.51-.193-.95-.427-1.32-.703-.37-.276-.65-.6-.86-.972-.2-.373-.31-.802-.31-1.29 0-.472.1-.92.31-1.348.21-.426.5-.8.89-1.122.39-.322.86-.578 1.42-.768.55-.19 1.18-.285 1.86-.285.72 0 1.37.095 1.95.285.57.19 1.06.45 1.46.784.4.34.71.73.92 1.18.21.45.32.94.32 1.46h-2.62c0-.22-.05-.43-.13-.65-.09-.21-.22-.4-.39-.56-.17-.16-.38-.29-.64-.39-.25-.09-.55-.14-.88-.14-.33 0-.62.04-.86.13-.25.09-.45.19-.61.33-.16.14-.28.29-.36.46-.08.18-.12.36-.12.56 0 .2.03.37.11.52.07.15.2.29.38.41s.42.24.73.34c.31.11.69.21 1.16.31.67.14 1.27.31 1.81.5.53.2.98.43 1.35.71.37.28.65.61.84.99.19.38.29.83.29 1.35 0 .52-.11.99-.34 1.42-.22.43-.54.8-.95 1.11-.41.31-.91.55-1.49.73-.58.17-1.23.26-1.94.26-.8 0-1.5-.11-2.11-.34-.62-.22-1.13-.52-1.54-.89-.42-.36-.73-.78-.94-1.24-.22-.46-.32-.93-.32-1.41h2.53c.02.36.1.66.25.91.14.25.33.44.55.59.22.15.47.26.75.33s.57.11.86.11c.69 0 1.21-.13 1.57-.4.36-.26.53-.6.53-1.03zM152.78 321c-.07-.136-.13-.297-.176-.483-.046-.187-.088-.387-.123-.602-.17.18-.36.347-.57.505-.21.158-.44.295-.7.414-.25.118-.53.21-.82.28-.29.067-.61.1-.95.1-.58 0-1.11-.087-1.6-.262-.48-.176-.9-.42-1.25-.73-.35-.312-.62-.68-.82-1.102-.19-.422-.29-.88-.29-1.375 0-.623.12-1.174.36-1.654s.58-.88 1.03-1.2c.45-.32 1.01-.57 1.66-.73.66-.17 1.4-.25 2.24-.25h1.65v-.76c0-.6-.17-1.08-.5-1.44-.33-.36-.85-.54-1.53-.54-.3 0-.58.04-.83.12-.25.08-.46.2-.64.34s-.31.31-.41.5c-.1.2-.14.4-.14.63h-2.61c0-.46.11-.9.34-1.32.23-.42.55-.8.96-1.14.41-.33.92-.6 1.51-.8.59-.2 1.25-.3 1.98-.3.65 0 1.25.09 1.8.26s1.03.42 1.43.75c.4.34.72.75.94 1.25.22.5.34 1.08.34 1.75v5.16c0 1.04.15 1.88.44 2.5v.18h-2.67zm-2.867-1.88c.3 0 .582-.04.843-.118.262-.08.498-.183.71-.312.21-.128.395-.277.553-.445.15-.17.28-.34.37-.51v-2.192h-1.41c-.97 0-1.7.168-2.18.505-.49.336-.73.813-.73 1.43 0 .235.04.453.11.654.08.2.19.374.35.52.15.148.35.262.57.345.22.082.49.123.79.123zm14.34-1.278c0-.186-.03-.36-.09-.52-.06-.162-.18-.313-.36-.452-.18-.14-.432-.27-.758-.393-.325-.12-.75-.236-1.273-.343-.623-.13-1.19-.29-1.702-.484-.512-.193-.95-.427-1.316-.703-.365-.276-.65-.6-.854-.972-.204-.373-.306-.802-.306-1.29 0-.472.104-.92.31-1.348.21-.426.508-.8.898-1.122.39-.322.863-.578 1.418-.768.555-.19 1.177-.285 1.864-.285.723 0 1.373.095 1.95.285.576.19 1.065.45 1.466.784.4.34.707.73.92 1.18.21.45.315.94.315 1.46h-2.61c0-.22-.043-.43-.13-.65-.085-.21-.214-.4-.386-.56-.18-.16-.39-.29-.64-.39-.26-.09-.55-.14-.89-.14-.33 0-.62.04-.86.13-.25.09-.45.19-.61.33-.16.14-.28.29-.36.46-.08.18-.12.36-.12.56 0 .2.03.37.1.52.07.15.2.29.38.41s.43.24.73.34c.31.11.69.21 1.16.31.67.14 1.27.31 1.81.5.53.2.98.43 1.35.71.37.28.65.61.84.99.19.38.29.83.29 1.35 0 .52-.11.99-.33 1.42-.22.43-.54.8-.95 1.11-.41.31-.91.55-1.49.73-.58.17-1.23.26-1.94.26-.79 0-1.5-.11-2.11-.34-.61-.22-1.13-.52-1.54-.89-.42-.36-.73-.78-.94-1.24-.21-.46-.32-.93-.32-1.41h2.53c.02.36.1.66.24.91s.32.44.55.59c.22.15.47.26.75.33s.56.11.86.11c.69 0 1.21-.13 1.57-.4.36-.26.53-.6.53-1.03zm11.355 0c0-.186-.03-.36-.09-.52-.062-.162-.182-.313-.36-.452-.18-.14-.432-.27-.758-.393-.326-.12-.75-.236-1.273-.343-.623-.13-1.19-.29-1.703-.484-.512-.193-.95-.427-1.316-.703-.365-.276-.65-.6-.854-.972-.204-.373-.306-.802-.306-1.29 0-.472.104-.92.312-1.348.207-.426.506-.8.897-1.122.39-.322.863-.578 1.418-.768.555-.19 1.176-.285 1.864-.285.72 0 1.37.095 1.94.285.57.19 1.06.45 1.46.784.4.34.7.73.92 1.18.21.45.31.94.31 1.46h-2.61c0-.22-.05-.43-.13-.65-.09-.21-.22-.4-.39-.56-.17-.16-.39-.29-.64-.39-.26-.09-.55-.14-.89-.14-.33 0-.62.04-.86.13-.25.09-.45.19-.61.33-.16.14-.28.29-.36.46-.08.18-.12.36-.12.56 0 .2.03.37.11.52.07.15.19.29.38.41.18.12.43.24.73.34.3.11.69.21 1.16.31.67.14 1.27.31 1.81.5.53.2.98.43 1.35.71.36.28.65.61.84.99.19.38.29.83.29 1.35 0 .52-.11.99-.34 1.42-.22.43-.54.8-.95 1.11-.41.31-.91.55-1.49.73-.58.17-1.22.26-1.93.26-.8 0-1.5-.11-2.11-.34-.62-.22-1.13-.52-1.55-.89-.42-.36-.73-.78-.94-1.24-.21-.46-.32-.93-.32-1.41h2.53c.02.36.1.66.25.91.14.25.32.44.54.59.22.15.47.26.75.33s.56.11.86.11c.68 0 1.21-.13 1.56-.4.36-.26.53-.6.53-1.03z"/>
        </clipPath>
        <g clip-path="url(#J)">
            <path fill="#fff" fill-rule="nonzero" d="M123.45 304.162h59.726v22.053H123.45z"/>
        </g>
        <clipPath id="K">
            <path d="M-14 90H95v109H-14V90zm22 24.01c0-1.114.894-2.01 2.01-2.01h60.98c1.114 0 2.01.894 2.01 2.01v60.98c0 1.114-.894 2.01-2.01 2.01H10.01c-1.114 0-2.01-.894-2.01-2.01v-60.98zm-2 0v60.98c0 2.22 1.792 4.01 4.01 4.01h60.98c2.22 0 4.01-1.792 4.01-4.01v-60.98c0-2.22-1.792-4.01-4.01-4.01H10.01C7.79 110 6 111.792 6 114.01z"/>
        </clipPath>
        <g clip-path="url(#K)">
            <clipPath id="L">
                <path d="M7 114.01c0-1.663 1.338-3.01 3.01-3.01h60.98c1.663 0 3.01 1.338 3.01 3.01v60.98c0 1.663-1.338 3.01-3.01 3.01H10.01C8.346 178 7 176.662 7 174.99v-60.98z"/>
            </clipPath>
            <g clip-path="url(#L)">
                <path fill="#2E3E47" fill-rule="nonzero" d="M7 114.01c0-1.663 1.338-3.01 3.01-3.01h60.98c1.663 0 3.01 1.338 3.01 3.01v60.98c0 1.663-1.338 3.01-3.01 3.01H10.01C8.346 178 7 176.662 7 174.99v-60.98z"/>
            </g>
        </g>
        <clipPath id="M">
            <path d="M7 114.01c0-1.663 1.338-3.01 3.01-3.01h60.98c1.663 0 3.01 1.338 3.01 3.01v60.98c0 1.663-1.338 3.01-3.01 3.01H10.01C8.346 178 7 176.662 7 174.99v-60.98z"/>
        </clipPath>
        <g clip-path="url(#M)">
            <path fill="none" stroke="#526B78" stroke-width="4" d="M7 114.01c0-1.663 1.338-3.01 3.01-3.01h60.98c1.663 0 3.01 1.338 3.01 3.01v60.98c0 1.663-1.338 3.01-3.01 3.01H10.01C8.346 178 7 176.662 7 174.99v-60.98z"/>
        </g>
        <clipPath id="N">
            <path d="M20.45 150.7c0-.415.133-.76.398-1.036s.637-.414 1.117-.414c.487 0 .863.138 1.128.414.265.275.397.62.397 1.036 0 .408-.132.747-.397 1.015-.265.27-.64.403-1.128.403-.236 0-.45-.036-.64-.107-.19-.07-.348-.17-.477-.3-.13-.13-.228-.28-.296-.45-.068-.17-.102-.36-.102-.56zm8.605-9.055c.4-.466.873-.83 1.418-1.09.544-.262 1.15-.393 1.815-.393.566 0 1.08.08 1.547.236.465.158.863.41 1.192.758.33.347.584.798.763 1.353.18.55.27 1.22.27 2.01V152h-2.612v-7.498c0-.802-.173-1.37-.52-1.703-.348-.34-.858-.5-1.532-.5-.544 0-1.01.12-1.4.37-.392.25-.705.59-.94 1.02V152h-2.612v-16.5h2.61v6.145zm19.84 4.662c0 .86-.098 1.65-.295 2.374-.197.73-.485 1.35-.865 1.87-.38.53-.852.93-1.418 1.23-.565.3-1.217.44-1.955.44-.71 0-1.325-.12-1.847-.38-.523-.25-.967-.62-1.332-1.09l-.13 1.26H38.69v-16.5h2.61v6c.366-.43.797-.76 1.295-.99.498-.23 1.08-.34 1.746-.34.76 0 1.42.15 1.98.44.57.29 1.04.7 1.43 1.22.39.53.67 1.15.87 1.88.2.73.29 1.53.29 2.39v.23zm-2.61-.226c0-.5-.04-.99-.123-1.45-.083-.45-.224-.85-.425-1.2-.2-.34-.467-.62-.8-.82-.333-.2-.75-.3-1.25-.3-.61 0-1.108.14-1.495.41-.386.27-.684.63-.89 1.08v4.79c.206.45.505.82.896 1.1.39.28.893.42 1.51.42.48 0 .883-.1 1.213-.29.33-.2.6-.47.8-.81.21-.34.35-.74.44-1.2.09-.46.13-.95.13-1.48v-.23zm11.312 2.77c0-.18-.03-.36-.092-.52-.06-.16-.18-.31-.36-.45s-.43-.27-.757-.39c-.326-.12-.75-.24-1.273-.34-.623-.13-1.19-.29-1.702-.48s-.95-.42-1.316-.7c-.366-.27-.65-.6-.854-.97-.204-.37-.306-.8-.306-1.29 0-.47.103-.92.31-1.35.21-.42.508-.8.898-1.12.39-.32.863-.58 1.418-.77.555-.19 1.176-.28 1.864-.28.723 0 1.373.1 1.95.29.576.19 1.065.45 1.466.79.4.34.707.73.918 1.18.22.45.32.94.32 1.46h-2.61c0-.22-.04-.43-.13-.65-.08-.21-.21-.4-.38-.56-.17-.16-.38-.29-.64-.39-.25-.09-.55-.14-.88-.14-.33 0-.61.04-.86.13-.24.09-.44.19-.6.33-.16.14-.28.29-.36.47-.07.18-.11.36-.11.55 0 .2.04.37.11.52.07.15.2.29.38.41.19.12.43.24.74.34.31.1.7.21 1.16.31.68.14 1.28.31 1.81.5.54.2.99.43 1.36.71.37.28.65.61.85.99.2.38.29.83.29 1.36 0 .51-.11.98-.33 1.41-.22.43-.53.8-.95 1.11-.41.31-.9.55-1.48.72-.58.18-1.22.26-1.93.26-.79 0-1.5-.11-2.11-.34-.61-.22-1.12-.52-1.54-.88-.42-.36-.73-.78-.94-1.24-.21-.46-.32-.93-.32-1.41h2.52c.02.36.11.66.25.9s.33.44.55.59c.22.15.47.26.75.33s.57.1.86.1c.69 0 1.21-.13 1.57-.39.36-.26.54-.6.54-1.02z"/>
        </clipPath>
        <g clip-path="url(#N)">
            <path fill="#fff" fill-rule="nonzero" d="M15.45 130.5h49.714v26.715H15.45z"/>
        </g>
        <clipPath id="O">
            <path d="M217 90h109v109H217V90zm22 24.01c0-1.114.894-2.01 2.01-2.01h60.98c1.114 0 2.01.894 2.01 2.01v60.98c0 1.114-.894 2.01-2.01 2.01h-60.98c-1.114 0-2.01-.894-2.01-2.01v-60.98zm-2 0v60.98c0 2.22 1.792 4.01 4.01 4.01h60.98c2.22 0 4.01-1.792 4.01-4.01v-60.98c0-2.22-1.792-4.01-4.01-4.01h-60.98c-2.22 0-4.01 1.792-4.01 4.01z"/>
        </clipPath>
        <g clip-path="url(#O)">
            <clipPath id="P">
                <path d="M238 114.01c0-1.663 1.338-3.01 3.01-3.01h60.98c1.663 0 3.01 1.338 3.01 3.01v60.98c0 1.663-1.338 3.01-3.01 3.01h-60.98c-1.663 0-3.01-1.338-3.01-3.01v-60.98z"/>
            </clipPath>
            <g clip-path="url(#P)">
                <path fill="#2E3E47" fill-rule="nonzero" d="M238 114.01c0-1.663 1.338-3.01 3.01-3.01h60.98c1.663 0 3.01 1.338 3.01 3.01v60.98c0 1.663-1.338 3.01-3.01 3.01h-60.98c-1.663 0-3.01-1.338-3.01-3.01v-60.98z"/>
            </g>
        </g>
        <clipPath id="Q">
            <path d="M238 114.01c0-1.663 1.338-3.01 3.01-3.01h60.98c1.663 0 3.01 1.338 3.01 3.01v60.98c0 1.663-1.338 3.01-3.01 3.01h-60.98c-1.663 0-3.01-1.338-3.01-3.01v-60.98z"/>
        </clipPath>
        <g clip-path="url(#Q)">
            <path fill="none" stroke="#526B78" stroke-width="4" d="M238 114.01c0-1.663 1.338-3.01 3.01-3.01h60.98c1.663 0 3.01 1.338 3.01 3.01v60.98c0 1.663-1.338 3.01-3.01 3.01h-60.98c-1.663 0-3.01-1.338-3.01-3.01v-60.98z"/>
        </g>
        <clipPath id="R">
            <path d="M251.45 150.7c0-.415.133-.76.398-1.036s.637-.414 1.117-.414c.487 0 .863.138 1.128.414.265.275.397.62.397 1.036 0 .408-.132.747-.397 1.015-.265.27-.64.403-1.128.403-.236 0-.45-.036-.64-.107-.19-.07-.348-.17-.477-.3-.13-.13-.228-.28-.296-.45-.068-.17-.102-.36-.102-.56zm16.21-4.393c0 .845-.098 1.63-.295 2.352-.197.72-.487 1.34-.87 1.87-.383.52-.856.94-1.418 1.23-.562.29-1.205.44-1.93.44-.665 0-1.248-.11-1.75-.32-.5-.22-.938-.53-1.31-.94v5.51h-2.61v-16.09h2.406l.107 1.18c.373-.45.815-.8 1.327-1.04s1.112-.36 1.8-.36c.737 0 1.39.14 1.954.43.57.28 1.05.69 1.43 1.2.39.52.68 1.14.87 1.87.2.73.3 1.53.3 2.41v.23zm-2.6-.226c0-.52-.05-1.01-.155-1.47-.104-.46-.263-.86-.478-1.2-.215-.34-.49-.61-.827-.81-.337-.2-.742-.29-1.214-.29-.573 0-1.046.12-1.418.36-.373.24-.666.56-.88.97v5.16c.214.41.506.74.874.99.37.25.85.37 1.445.37.473 0 .876-.1 1.21-.3.332-.2.606-.48.82-.82.215-.34.373-.75.473-1.22.1-.46.15-.95.15-1.47v-.22zm7.23-5.7l.075 1.35c.408-.49.9-.87 1.472-1.15.573-.27 1.21-.4 1.912-.4.55 0 1.06.08 1.52.23.45.16.84.41 1.16.75.32.35.57.79.74 1.35.17.55.26 1.22.26 2.01v7.5h-2.61v-7.53c0-.4-.05-.74-.14-1.01-.09-.27-.22-.5-.4-.67-.17-.17-.39-.29-.64-.37-.26-.07-.55-.11-.88-.11-.54 0-1.01.13-1.41.39-.4.26-.71.61-.95 1.04V152h-2.61v-11.623h2.46zm9.357 5.73c0-.88.107-1.68.322-2.41.21-.73.52-1.35.92-1.88.4-.52.89-.93 1.46-1.21.57-.28 1.22-.43 1.93-.43.7 0 1.3.12 1.81.36s.94.58 1.31 1.03l.12-1.17h2.35v11.3c0 .78-.13 1.48-.39 2.09-.26.61-.62 1.12-1.08 1.54-.46.42-1.02.73-1.67.95-.65.22-1.36.33-2.13.33-.32 0-.68-.03-1.07-.1-.4-.07-.8-.18-1.2-.33-.4-.15-.79-.35-1.15-.59-.37-.25-.68-.54-.94-.89l1.24-1.57c.43.51.89.88 1.4 1.1.5.22 1.02.33 1.56.33.86 0 1.55-.23 2.05-.7.5-.47.75-1.16.75-2.07V151c-.37.41-.8.72-1.29.94-.5.216-1.07.324-1.72.324-.71 0-1.35-.15-1.92-.445-.57-.3-1.06-.71-1.46-1.23-.41-.53-.72-1.15-.93-1.87-.22-.72-.32-1.5-.32-2.35v-.23zm2.6.23c0 .52.05 1 .155 1.46.104.46.267.86.49 1.2.22.35.5.62.836.82.337.2.742.3 1.214.3.588 0 1.067-.12 1.44-.37.372-.24.673-.57.902-.98v-5.11c-.23-.4-.532-.73-.908-.96-.375-.23-.846-.35-1.412-.35-.473 0-.88.1-1.225.3-.35.2-.63.47-.85.82-.22.35-.38.75-.49 1.21-.11.46-.16.96-.16 1.48v.23z"/>
        </clipPath>
        <g clip-path="url(#R)">
            <path fill="#fff" fill-rule="nonzero" d="M246.45 135.162h50.444v26.414H246.45z"/>
        </g>
        <clipPath id="S">
            <path d="M217 202h109v109H217V202zm22 24.01c0-1.114.894-2.01 2.01-2.01h60.98c1.114 0 2.01.894 2.01 2.01v60.98c0 1.114-.894 2.01-2.01 2.01h-60.98c-1.114 0-2.01-.894-2.01-2.01v-60.98zm-2 0v60.98c0 2.22 1.792 4.01 4.01 4.01h60.98c2.22 0 4.01-1.792 4.01-4.01v-60.98c0-2.22-1.792-4.01-4.01-4.01h-60.98c-2.22 0-4.01 1.792-4.01 4.01z"/>
        </clipPath>
        <g clip-path="url(#S)">
            <clipPath id="T">
                <path d="M238 226.01c0-1.663 1.338-3.01 3.01-3.01h60.98c1.663 0 3.01 1.338 3.01 3.01v60.98c0 1.663-1.338 3.01-3.01 3.01h-60.98c-1.663 0-3.01-1.338-3.01-3.01v-60.98z"/>
            </clipPath>
            <g clip-path="url(#T)">
                <path fill="#2E3E47" fill-rule="nonzero" d="M238 226.01c0-1.663 1.338-3.01 3.01-3.01h60.98c1.663 0 3.01 1.338 3.01 3.01v60.98c0 1.663-1.338 3.01-3.01 3.01h-60.98c-1.663 0-3.01-1.338-3.01-3.01v-60.98z"/>
            </g>
        </g>
        <clipPath id="U">
            <path d="M238 226.01c0-1.663 1.338-3.01 3.01-3.01h60.98c1.663 0 3.01 1.338 3.01 3.01v60.98c0 1.663-1.338 3.01-3.01 3.01h-60.98c-1.663 0-3.01-1.338-3.01-3.01v-60.98z"/>
        </clipPath>
        <g clip-path="url(#U)">
            <path fill="none" stroke="#526B78" stroke-width="4" d="M238 226.01c0-1.663 1.338-3.01 3.01-3.01h60.98c1.663 0 3.01 1.338 3.01 3.01v60.98c0 1.663-1.338 3.01-3.01 3.01h-60.98c-1.663 0-3.01-1.338-3.01-3.01v-60.98z"/>
        </g>
        <clipPath id="V">
            <path d="M254.45 262.7c0-.415.133-.76.398-1.036s.637-.414 1.117-.414c.487 0 .863.138 1.128.414.265.275.397.62.397 1.036 0 .408-.132.747-.397 1.015-.265.27-.64.403-1.128.403-.236 0-.45-.036-.64-.107-.19-.07-.348-.17-.477-.3-.13-.13-.228-.28-.296-.45-.068-.17-.102-.36-.102-.56zm8.755-10.323v12.654c0 1.19-.295 2.1-.886 2.73-.6.63-1.46.94-2.6.94-.23 0-.47-.01-.71-.05-.25-.03-.47-.07-.68-.13v-2.06c.15.04.31.06.47.08.17.02.31.02.44.02.43 0 .76-.11.99-.35.23-.23.34-.62.34-1.16v-12.66h2.61zm-2.836-3.02c0-.4.12-.733.38-.998.25-.27.61-.4 1.09-.4.47 0 .84.13 1.09.39.26.26.38.59.38 1 0 .39-.13.72-.39.98s-.62.39-1.1.39-.84-.13-1.09-.4c-.26-.26-.38-.59-.38-.98zm15.8 8.95c0 .845-.1 1.63-.3 2.352-.2.72-.49 1.34-.87 1.87-.39.52-.86.94-1.42 1.23-.56.29-1.21.44-1.93.44-.67 0-1.25-.11-1.75-.32-.5-.22-.94-.53-1.31-.94v5.51h-2.61v-16.09h2.4l.1 1.18c.37-.45.81-.8 1.32-1.04s1.11-.36 1.8-.36c.74 0 1.39.14 1.95.43.56.28 1.04.69 1.42 1.2.38.52.67 1.14.87 1.87.2.73.29 1.53.29 2.41v.23zm-2.6-.226c0-.52-.05-1.01-.16-1.47-.11-.46-.27-.86-.48-1.2-.22-.34-.49-.61-.83-.81-.34-.2-.74-.29-1.22-.29-.57 0-1.05.12-1.42.36s-.67.56-.88.97v5.16c.21.41.5.74.87.99s.85.37 1.44.37c.47 0 .87-.1 1.21-.3.33-.2.6-.48.82-.82.21-.34.37-.75.47-1.22.1-.46.15-.95.15-1.47v-.22zm4.35.03c0-.88.1-1.68.32-2.41.21-.73.52-1.35.93-1.88.4-.52.89-.93 1.46-1.21.57-.28 1.21-.43 1.93-.43.7 0 1.3.12 1.81.36s.94.58 1.31 1.03l.11-1.17h2.35v11.3c0 .78-.13 1.48-.39 2.09-.26.61-.62 1.12-1.08 1.54-.46.42-1.02.73-1.67.95-.65.22-1.36.33-2.14.33-.32 0-.68-.03-1.08-.1s-.79-.18-1.19-.33c-.4-.15-.79-.35-1.15-.59-.37-.25-.68-.54-.94-.89l1.23-1.57c.43.51.9.88 1.4 1.1.5.22 1.03.33 1.56.33.86 0 1.55-.23 2.05-.7.5-.47.75-1.16.75-2.07V263c-.37.41-.8.72-1.29.94-.49.216-1.07.324-1.72.324-.71 0-1.35-.15-1.92-.445-.57-.3-1.06-.71-1.46-1.23-.41-.53-.72-1.15-.93-1.87-.22-.72-.32-1.5-.32-2.35v-.23zm2.6.23c0 .52.05 1 .15 1.46.1.46.26.86.49 1.2.22.35.5.62.83.82.33.2.74.3 1.21.3.58 0 1.06-.12 1.44-.37.37-.24.67-.57.9-.98v-5.11c-.23-.4-.54-.73-.91-.96s-.85-.35-1.42-.35c-.47 0-.88.1-1.23.3-.35.2-.63.47-.85.82-.22.35-.38.75-.49 1.21-.11.46-.17.96-.17 1.48v.23z"/>
        </clipPath>
        <g clip-path="url(#V)">
            <path fill="#fff" fill-rule="nonzero" d="M249.45 242.962h43.72v30.732h-43.72z"/>
        </g>
        <clipPath id="W">
            <path d="M-14 202H95v109H-14V202zm22 24.01c0-1.114.894-2.01 2.01-2.01h60.98c1.114 0 2.01.894 2.01 2.01v60.98c0 1.114-.894 2.01-2.01 2.01H10.01c-1.114 0-2.01-.894-2.01-2.01v-60.98zm-2 0v60.98c0 2.22 1.792 4.01 4.01 4.01h60.98c2.22 0 4.01-1.792 4.01-4.01v-60.98c0-2.22-1.792-4.01-4.01-4.01H10.01C7.79 222 6 223.792 6 226.01z"/>
        </clipPath>
        <g clip-path="url(#W)">
            <clipPath id="X">
                <path d="M7 226.01c0-1.663 1.338-3.01 3.01-3.01h60.98c1.663 0 3.01 1.338 3.01 3.01v60.98c0 1.663-1.338 3.01-3.01 3.01H10.01C8.346 290 7 288.662 7 286.99v-60.98z"/>
            </clipPath>
            <g clip-path="url(#X)">
                <path fill="#2E3E47" fill-rule="nonzero" d="M7 226.01c0-1.663 1.338-3.01 3.01-3.01h60.98c1.663 0 3.01 1.338 3.01 3.01v60.98c0 1.663-1.338 3.01-3.01 3.01H10.01C8.346 290 7 288.662 7 286.99v-60.98z"/>
            </g>
        </g>
        <clipPath id="Y">
            <path d="M7 226.01c0-1.663 1.338-3.01 3.01-3.01h60.98c1.663 0 3.01 1.338 3.01 3.01v60.98c0 1.663-1.338 3.01-3.01 3.01H10.01C8.346 290 7 288.662 7 286.99v-60.98z"/>
        </clipPath>
        <g clip-path="url(#Y)">
            <path fill="none" stroke="#526B78" stroke-width="4" d="M7 226.01c0-1.663 1.338-3.01 3.01-3.01h60.98c1.663 0 3.01 1.338 3.01 3.01v60.98c0 1.663-1.338 3.01-3.01 3.01H10.01C8.346 290 7 288.662 7 286.99v-60.98z"/>
        </g>
        <clipPath id="Z">
            <path d="M21.45 262.7c0-.415.133-.76.398-1.036s.637-.414 1.117-.414c.487 0 .863.138 1.128.414.265.275.397.62.397 1.036 0 .408-.132.747-.397 1.015-.265.27-.64.403-1.128.403-.236 0-.45-.036-.64-.107-.19-.07-.348-.17-.477-.3-.13-.13-.228-.28-.296-.45-.068-.17-.102-.36-.102-.56zm10.807-.57c.315 0 .61-.048.886-.144.276-.097.516-.233.72-.408.204-.176.37-.385.494-.63.125-.242.195-.507.21-.794h2.46c-.022.56-.16 1.085-.414 1.58-.254.494-.595.925-1.02 1.294-.427.37-.923.66-1.49.87-.564.21-1.17.317-1.814.317-.9 0-1.68-.154-2.34-.462-.67-.308-1.22-.727-1.66-1.257-.44-.53-.77-1.15-.99-1.858-.22-.71-.32-1.46-.32-2.256v-.376c0-.795.11-1.547.32-2.256.21-.71.54-1.33.98-1.864.44-.533.99-.954 1.65-1.262.66-.308 1.43-.462 2.33-.462.7 0 1.34.108 1.92.322.57.215 1.07.516 1.48.903.41.386.73.848.96 1.386.23.537.36 1.127.38 1.772h-2.46c-.02-.308-.08-.602-.19-.88-.11-.28-.27-.524-.46-.73-.2-.21-.44-.374-.72-.495-.28-.122-.6-.183-.95-.183-.53 0-.97.11-1.31.328-.34.218-.62.503-.82.854-.2.35-.34.75-.42 1.2-.07.45-.11.9-.11 1.36v.37c0 .47.04.93.11 1.38.07.45.21.84.41 1.2.2.35.47.63.81.85.34.21.78.32 1.32.32zm13.256-1.288c0-.186-.03-.36-.092-.52-.06-.162-.18-.313-.35-.452-.18-.14-.43-.27-.76-.393-.32-.12-.75-.236-1.27-.343-.62-.13-1.19-.29-1.7-.484-.51-.193-.95-.427-1.31-.703-.36-.276-.65-.6-.85-.972-.2-.373-.3-.802-.3-1.29 0-.472.1-.92.31-1.348.21-.426.51-.8.9-1.122.39-.322.87-.578 1.42-.768.56-.19 1.18-.285 1.87-.285.72 0 1.37.095 1.95.285.57.19 1.06.45 1.46.784.4.34.71.73.92 1.18.22.45.32.94.32 1.46H45.4c0-.22-.04-.43-.13-.65-.084-.21-.213-.4-.385-.56-.172-.16-.385-.29-.64-.39-.253-.09-.55-.14-.885-.14-.33 0-.62.04-.86.13-.246.09-.448.19-.61.33-.16.14-.28.29-.36.46-.08.18-.12.36-.12.56 0 .2.037.37.11.52.07.15.2.29.38.41.183.12.43.24.736.34.31.11.696.21 1.16.31.67.14 1.278.31 1.81.5.535.2.986.43 1.355.71.37.28.65.61.85.99.2.38.29.83.29 1.35 0 .52-.11.99-.33 1.42-.22.43-.54.8-.95 1.11-.41.31-.9.55-1.48.73-.58.17-1.22.26-1.93.26-.79 0-1.5-.11-2.11-.34-.61-.22-1.13-.52-1.54-.89-.41-.36-.73-.78-.94-1.24-.21-.46-.32-.93-.32-1.41H41c.022.36.105.66.248.91.143.25.326.44.548.59.222.15.473.26.752.33.28.07.566.11.86.11.687 0 1.21-.13 1.568-.4.358-.26.537-.6.537-1.03zm11.354 0c0-.186-.03-.36-.09-.52-.062-.162-.182-.313-.36-.452-.18-.14-.432-.27-.758-.393-.33-.12-.75-.236-1.28-.343-.63-.13-1.19-.29-1.71-.484-.51-.193-.95-.427-1.32-.703-.37-.276-.65-.6-.86-.972-.2-.373-.31-.802-.31-1.29 0-.472.1-.92.31-1.348.2-.426.5-.8.89-1.122.39-.322.86-.578 1.42-.768.55-.19 1.17-.285 1.86-.285.72 0 1.37.095 1.95.285.57.19 1.06.45 1.46.784.4.34.71.73.92 1.18.21.45.32.94.32 1.46H56.7c0-.22-.042-.43-.13-.65-.084-.21-.212-.4-.384-.56-.17-.16-.384-.29-.64-.39-.253-.09-.55-.14-.885-.14-.33 0-.61.04-.86.13-.24.09-.44.19-.6.33-.16.14-.28.29-.36.46-.08.18-.12.36-.12.56 0 .2.04.37.11.52.07.15.2.29.38.41s.43.24.74.34c.31.11.69.21 1.16.31.67.14 1.28.31 1.81.5.53.2.98.43 1.35.71.37.28.65.61.85.99.19.38.29.83.29 1.35 0 .52-.11.99-.33 1.42-.22.43-.54.8-.95 1.11-.41.31-.91.55-1.49.73-.58.17-1.22.26-1.93.26-.79 0-1.5-.11-2.11-.34-.61-.22-1.13-.52-1.54-.89-.42-.36-.73-.78-.94-1.24-.21-.46-.32-.93-.32-1.41h2.53c.03.36.11.66.25.91.15.25.33.44.55.59.23.15.48.26.76.33s.57.11.86.11c.69 0 1.21-.13 1.57-.4.36-.26.54-.6.54-1.03z"/>
        </clipPath>
        <g clip-path="url(#Z)">
            <path fill="#fff" fill-rule="nonzero" d="M16.45 247.162h47.984v22.053H16.45z"/>
        </g>
        <path fill="none" stroke="#BBDBEC" stroke-width="2" d="M44 110V66m0 44V66m3 33.2L44 110l-3-10.8M41 66h6M26 221v-44m0 44v-44m3 33.2L26 221l-3-10.8m0-33.2h6m88 18H43l-1.454 1.454L40 198v26"/>
        <path fill="none" stroke="#BBDBEC" stroke-width="2" d="M117 195H43l-1.454 1.454L40 198v26m66.2-32l10.8 3-10.8 3M43 224h-6m118 126v20l-3 2H74"/>
        <path fill="none" stroke="#BBDBEC" stroke-width="2" d="M155 350v20l-3 2H74m84-11.2l-3-10.8-3 10.8M74 369v6m193-82v20l-3 2h-78"/>
        <path fill="none" stroke="#BBDBEC" stroke-width="2" d="M267 293v20l-3 2h-78m84-11.2l-3-10.8-3 10.8m-78 8.2v6m-32-41v-20l-3-2H73"/>
        <path fill="none" stroke="#BBDBEC" stroke-width="2" d="M154 277v-20l-3-2H73m84 11.2l-3 10.8-3-10.8M73 258v-6m81-128v20l-3 2H73"/>
        <path fill="none" stroke="#BBDBEC" stroke-width="2" d="M154 124v20l-3 2H73m84-11.2l-3-10.8-3 10.8M73 143v6m198-42V87l-3-2h-78"/>
        <path fill="none" stroke="#BBDBEC" stroke-width="2" d="M271 107V87l-3-2h-78m84 11.2l-3 10.8-3-10.8M190 88v-6m78 139v-17h-53l-4-4v-90h-21"/>
        <path fill="none" stroke="#BBDBEC" stroke-width="2" d="M268 221v-17h-53l-4-4v-90h-21m81 100.2l-3 10.8-3-10.8M190 113v-6"/>
        <path fill="none" stroke="#7E8C94" stroke-width="4" d="M322 290s185-78 490-78" stroke-dasharray="6 6"/>
        <path fill="none" stroke="#7E8C94" stroke-width="4" d="M322 111s187 72 492 72m51 15s-16 6-64.92-25S736 113 736 113" stroke-dasharray="7 7"/>
        <path fill="none" stroke="#7E8C94" stroke-width="4" d="M865 198.467s-16-6-64.92 25-64.08 60-64.08 60" stroke-dasharray="7 7"/>
        <clipPath id="aa">
            <path d="M3.184 438.203l3.69 9.81 3.684-9.81h2.874V451h-2.215v-4.22l.22-5.64-3.78 9.86h-1.59l-3.77-9.853.22 5.634V451H.3v-12.797h2.884zm23.988 6.733c0 .972-.127 1.844-.382 2.614-.255.77-.614 1.424-1.077 1.96-.462.536-1.02.948-1.67 1.235-.65.287-1.37.43-2.162.43-.78 0-1.5-.143-2.15-.43-.65-.287-1.21-.7-1.68-1.235-.47-.536-.84-1.19-1.1-1.96-.26-.77-.39-1.642-.39-2.614v-.65c0-.974.13-1.847.39-2.62.26-.773.63-1.43 1.09-1.97.47-.538 1.03-.95 1.68-1.238.65-.287 1.37-.43 2.16-.43s1.52.143 2.17.43c.66.287 1.22.7 1.68 1.24.47.538.83 1.195 1.08 1.968.26.773.38 1.646.38 2.62v.65zm-2.223-.668c0-.715-.07-1.347-.21-1.894-.14-.548-.34-1.007-.6-1.376-.27-.37-.59-.65-.97-.84-.39-.19-.82-.285-1.31-.285-.48 0-.9.095-1.29.286-.38.19-.71.47-.97.83-.27.37-.48.83-.62 1.37-.15.54-.22 1.18-.22 1.89v.67c0 .71.07 1.34.21 1.89.14.55.35 1.01.62 1.38.27.37.59.65.98.84.38.19.81.28 1.28.28.98 0 1.74-.38 2.27-1.13s.79-1.84.79-3.28v-.67zM30.28 451v-12.797h3.78c.855 0 1.636.144 2.342.43.705.288 1.31.697 1.818 1.227.507.53.9 1.17 1.182 1.92.282.75.422 1.588.422 2.514v.633c0 .926-.14 1.762-.418 2.51-.28.746-.675 1.383-1.188 1.91-.512.528-1.13.935-1.854 1.222-.724.28-1.528.43-2.413.43h-3.67zm2.224-11.004v9.23h1.45c.604 0 1.134-.1 1.59-.296.458-.196.837-.48 1.14-.848.3-.37.53-.82.68-1.353.153-.54.23-1.14.23-1.81v-.65c0-1.39-.303-2.45-.906-3.18-.603-.74-1.48-1.1-2.627-1.1h-1.55zm19.796-1.793v8.56c0 .733-.124 1.375-.373 1.925-.25.55-.59 1.01-1.024 1.38-.435.37-.94.646-1.52.83-.58.185-1.203.278-1.865.278-.684 0-1.32-.093-1.902-.277-.585-.19-1.09-.47-1.518-.84-.428-.37-.76-.83-1.002-1.38-.24-.55-.36-1.19-.36-1.93v-8.56h2.216v8.56c0 .45.06.85.18 1.18.12.33.29.6.513.82.22.21.49.37.81.48.313.1.67.15 1.06.15.393 0 .75-.05 1.07-.16.32-.11.59-.27.81-.48.216-.22.386-.49.506-.82.12-.34.18-.73.18-1.19v-8.56h2.22zm5.497 11.022h5.81V451h-8.03v-12.797H57.8v11.022zm15.894-3.938h-5.25v3.938h6.15V451h-8.37v-12.797h8.31v1.793h-6.08v3.533h5.25v1.75zm10.29 2.417c0-.258-.03-.488-.11-.69-.07-.202-.21-.388-.41-.558-.2-.17-.48-.332-.83-.488-.35-.155-.81-.318-1.37-.488-.61-.18-1.17-.39-1.69-.624-.51-.234-.96-.506-1.33-.817-.37-.31-.66-.67-.87-1.08-.21-.41-.31-.87-.31-1.39 0-.52.11-.99.33-1.43.22-.44.53-.81.93-1.13.4-.32.88-.57 1.44-.74.56-.18 1.17-.27 1.85-.27.72 0 1.37.1 1.94.31.58.21 1.06.49 1.46.85.4.35.7.77.91 1.24.21.47.32.97.32 1.5H84c0-.31-.048-.6-.145-.86-.096-.26-.244-.49-.443-.68-.2-.19-.45-.34-.755-.45-.306-.11-.667-.16-1.08-.16-.395 0-.735.04-1.02.13-.29.09-.53.21-.72.37-.19.16-.33.34-.42.56-.09.22-.135.45-.135.7 0 .47.224.87.673 1.18.45.31 1.13.61 2.05.88.72.21 1.348.44 1.875.7.53.26.967.55 1.316.87.35.32.61.69.78 1.1.17.4.256.86.256 1.37 0 .54-.107 1.03-.32 1.46-.215.43-.52.8-.915 1.1-.396.3-.875.53-1.44.69-.56.16-1.19.24-1.88.24-.612 0-1.22-.08-1.82-.25-.594-.17-1.13-.42-1.61-.76-.47-.34-.852-.76-1.142-1.27-.29-.5-.434-1.09-.434-1.77h2.23c0 .4.07.75.22 1.04.15.29.34.53.59.71.25.19.54.32.88.41.34.08.71.13 1.1.13.77 0 1.36-.16 1.74-.47.39-.32.59-.73.59-1.25zm20.5.132l1.97-9.633h2.21L105.7 451h-2.126l-2.434-9.343L98.652 451h-2.136l-2.953-12.797h2.206l1.98 9.615 2.44-9.615h1.86l2.41 9.633zm9.04 3.164h-2.21v-12.797h2.22V451zm12.63-11.004h-3.99V451h-2.2v-11.004H116v-1.793h10.15v1.793zM138.89 451h-2.215v-5.687h-5.72V451h-2.225v-12.797h2.224v5.326h5.72v-5.33h2.216V451zm8.91 0v-12.797h3.78c.855 0 1.636.144 2.342.43.706.288 1.313.697 1.82 1.227.506.53.9 1.17 1.182 1.92.28.75.422 1.588.422 2.514v.633c0 .926-.14 1.762-.418 2.51-.278.746-.674 1.383-1.187 1.91-.51.528-1.13.935-1.85 1.222-.72.28-1.53.43-2.41.43h-3.68zm2.224-11.004v9.23h1.45c.604 0 1.134-.1 1.59-.296.458-.196.838-.48 1.14-.848.3-.37.528-.82.68-1.353.153-.54.23-1.14.23-1.81v-.65c0-1.39-.303-2.45-.906-3.18-.604-.74-1.48-1.1-2.628-1.1h-1.556zm17.916 5.29h-5.256v3.94h6.144V451h-8.368v-12.797h8.306v1.793h-6.082v3.533h5.256v1.75zm5.822.96V451h-2.224v-12.797h4.896c.744 0 1.404.1 1.98.303.58.203 1.067.485 1.465.848.39.364.7.794.91 1.292.2.5.31 1.04.31 1.626 0 .622-.11 1.178-.31 1.67-.21.493-.52.91-.91 1.248-.4.34-.89.6-1.47.783-.58.18-1.24.272-1.98.272h-2.68zm0-1.785h2.672c.427 0 .795-.05 1.103-.15.307-.1.56-.25.76-.45.2-.19.344-.42.435-.69.09-.26.136-.56.136-.87 0-.3-.045-.58-.136-.86-.09-.27-.236-.52-.435-.73-.2-.21-.453-.38-.76-.51-.308-.12-.676-.19-1.103-.19h-2.672v4.47zm17.66.83h-5.255v3.94h6.143V451h-8.367v-12.797h8.306v1.793h-6.09v3.533h5.25v1.75zm13.75 5.72h-2.224l-5.704-9.08V451h-2.223v-12.797h2.23l5.72 9.114v-9.114h2.21V451zm3.528 0v-12.8h3.78c.855 0 1.635.15 2.342.43.706.29 1.312.7 1.82 1.23.506.53.9 1.17 1.18 1.92.282.75.423 1.59.423 2.52v.64c0 .93-.14 1.77-.418 2.51-.278.75-.673 1.39-1.186 1.91-.51.53-1.13.94-1.85 1.23-.72.29-1.52.43-2.41.43h-3.68zm2.224-11.01v9.23h1.45c.603 0 1.134-.1 1.59-.29.458-.19.837-.48 1.14-.84.3-.37.528-.82.68-1.35.152-.53.23-1.13.23-1.8v-.65c0-1.39-.303-2.45-.907-3.18-.603-.73-1.48-1.1-2.628-1.1h-1.56zm17.915 5.29h-5.26v3.94h6.14V451h-8.37v-12.797h8.3v1.793h-6.08v3.533h5.25v1.75zm13.75 5.71h-2.23l-5.71-9.08V451h-2.22v-12.797h2.22l5.72 9.114v-9.114h2.2V451zm13.29-4.16c-.06.63-.21 1.21-.44 1.74s-.56.99-.98 1.38c-.42.39-.93.69-1.53.91-.6.22-1.3.33-2.08.33-.79 0-1.5-.14-2.13-.42-.64-.28-1.18-.69-1.63-1.21-.45-.52-.8-1.16-1.04-1.9s-.36-1.58-.36-2.5v-1.04c0-.92.12-1.75.37-2.5.24-.74.59-1.38 1.05-1.91.46-.53 1.01-.93 1.66-1.22.65-.28 1.37-.43 2.17-.43.76 0 1.43.11 2.02.33.58.22 1.08.53 1.49.92.4.39.72.86.95 1.4.23.54.38 1.13.44 1.77h-2.21c-.05-.4-.13-.76-.25-1.09-.12-.32-.28-.59-.49-.82-.21-.22-.48-.4-.8-.51-.33-.11-.72-.17-1.17-.17-.51 0-.95.09-1.32.29-.38.19-.7.47-.95.83s-.44.81-.57 1.34c-.13.53-.19 1.13-.19 1.8v1.06c0 .64.06 1.22.17 1.74.11.52.28.97.52 1.34.23.38.53.66.9.87.37.21.81.31 1.32.31.48 0 .88-.05 1.21-.17.33-.11.6-.27.82-.49.22-.21.38-.48.5-.8.12-.31.2-.68.26-1.09h2.21zm5.23 4.17h-2.21v-12.8h2.21V451zm11.11-5.71h-5.26v3.94h6.14V451h-8.37v-12.797h8.3v1.793h-6.09v3.533h5.26v1.75zm10.28 2.42c0-.25-.04-.48-.12-.69-.08-.2-.22-.38-.42-.55-.2-.17-.48-.33-.84-.49-.36-.15-.81-.32-1.37-.49-.61-.18-1.17-.39-1.69-.62-.52-.23-.96-.5-1.33-.81-.38-.31-.67-.67-.88-1.08-.21-.4-.32-.87-.32-1.39 0-.51.11-.99.33-1.42.22-.43.53-.8.93-1.12.4-.31.87-.56 1.43-.74.56-.17 1.17-.26 1.84-.26.72 0 1.36.11 1.94.31.57.21 1.06.49 1.45.85.39.36.7.77.91 1.24.21.48.31.98.31 1.51h-2.21c0-.31-.05-.59-.15-.85-.1-.26-.24-.49-.44-.68-.2-.19-.45-.34-.76-.44-.31-.1-.67-.15-1.09-.15-.39 0-.73.04-1.02.13-.28.09-.52.21-.71.37-.19.16-.33.34-.42.56-.09.22-.14.45-.14.7 0 .48.22.87.67 1.19.45.32 1.13.61 2.05.88.72.21 1.34.45 1.87.7.53.26.96.55 1.31.88.35.33.61.69.78 1.1.17.41.26.87.26 1.38 0 .54-.11 1.03-.32 1.46-.22.43-.52.8-.92 1.1-.39.3-.87.53-1.43.7-.57.16-1.19.24-1.88.24-.62 0-1.23-.08-1.82-.25-.6-.16-1.14-.42-1.61-.75-.48-.34-.86-.76-1.15-1.26-.29-.5-.43-1.09-.43-1.77h2.22c0 .4.07.75.21 1.04.14.29.34.53.59.71.25.18.54.32.88.4.34.09.71.13 1.1.13.77 0 1.35-.16 1.74-.47.39-.32.59-.73.59-1.25z"/>
        </clipPath>
        <g clip-path="url(#aa)">
            <path fill="#83A6B9" fill-rule="nonzero" d="M-4.7 433.027h294.44v23.148H-4.7z"/>
        </g>
        <clipPath id="ab">
            <path d="M947.99 352.704c0-.258-.04-.488-.115-.69-.076-.202-.215-.388-.418-.558-.202-.17-.48-.332-.834-.488-.355-.155-.81-.318-1.367-.487-.61-.18-1.172-.39-1.688-.62-.515-.23-.96-.5-1.33-.81-.373-.31-.665-.67-.876-1.07-.21-.4-.316-.86-.316-1.39 0-.51.11-.99.33-1.42.22-.43.528-.8.927-1.12.398-.32.876-.56 1.432-.74.557-.17 1.172-.26 1.846-.26.73 0 1.37.11 1.95.31.58.21 1.06.49 1.46.85.4.36.7.77.91 1.25.21.47.32.98.32 1.51H948c0-.31-.05-.6-.146-.86-.098-.26-.246-.48-.446-.67-.2-.19-.45-.34-.754-.44-.304-.11-.664-.16-1.08-.16-.393 0-.733.05-1.02.13-.287.09-.526.21-.716.37-.19.16-.33.35-.423.56-.09.22-.133.45-.133.71 0 .48.226.87.674 1.19.447.32 1.13.61 2.05.88.72.21 1.345.45 1.87.7.53.26.967.55 1.316.88.35.33.61.69.78 1.1.17.41.253.87.253 1.38 0 .54-.11 1.02-.32 1.46-.217.43-.52.8-.917 1.1-.396.3-.875.53-1.438.69-.56.16-1.186.25-1.88.25-.613 0-1.22-.08-1.82-.25-.595-.17-1.13-.42-1.606-.76-.477-.34-.86-.76-1.15-1.26-.29-.5-.436-1.09-.436-1.77h2.225c0 .41.07.75.216 1.04.14.29.34.53.58.72.25.19.54.32.88.41.34.09.71.13 1.1.13.77 0 1.35-.16 1.74-.47.39-.32.58-.73.58-1.25zm14.82-7.708h-3.99V356h-2.206v-11.004h-3.955v-1.793h10.15v1.793zm9.187 8.025h-4.957l-1.037 2.98h-2.31l4.833-12.79h1.995l4.85 12.79h-2.32l-1.05-2.98zm-4.333-1.79h3.71l-1.855-5.31-1.86 5.31zm18.74-6.23h-3.99v11h-2.205v-11h-3.96v-1.79h10.15V345zm5.426 11h-2.214v-12.79h2.214V356zm13.9-4.16c-.06.63-.21 1.21-.44 1.74s-.56.99-.98 1.38c-.41.39-.92.69-1.52.91-.6.22-1.29.33-2.08.33-.785 0-1.496-.14-2.13-.42-.637-.28-1.18-.69-1.627-1.21-.45-.52-.793-1.16-1.033-1.9-.24-.74-.36-1.58-.36-2.5v-1.04c0-.92.123-1.75.37-2.5.245-.74.596-1.38 1.053-1.91.457-.53 1.01-.93 1.657-1.22.648-.28 1.37-.43 2.18-.43.76 0 1.43.11 2.02.33.58.22 1.08.53 1.49.92.4.39.72.86.95 1.4.24.54.38 1.13.45 1.77h-2.22c-.04-.4-.12-.76-.24-1.09-.11-.32-.27-.59-.49-.82-.21-.22-.47-.4-.8-.51-.32-.11-.71-.17-1.16-.17-.51 0-.95.1-1.327.29-.378.19-.693.47-.945.83s-.44.81-.567 1.34c-.12.53-.18 1.13-.18 1.8v1.06c0 .64.06 1.22.17 1.74.11.52.29.97.52 1.34.24.38.54.66.91.87.37.21.81.31 1.33.31.48 0 .89-.05 1.22-.16.33-.11.6-.28.82-.49.22-.21.38-.48.5-.8.13-.31.21-.68.26-1.09h2.22zm16.43 1.19h-4.96l-1.03 2.98h-2.31l4.83-12.79h1.99l4.85 12.8h-2.32l-1.05-2.98zm-4.33-1.79h3.71l-1.86-5.31-1.85 5.31zm17.24 1.48c0-.26-.04-.49-.12-.69-.07-.2-.21-.39-.42-.56-.2-.17-.48-.33-.83-.49-.36-.15-.81-.32-1.37-.48-.61-.18-1.17-.39-1.69-.62-.51-.23-.96-.5-1.33-.81-.37-.31-.66-.67-.87-1.07-.21-.4-.32-.87-.32-1.39 0-.51.11-.99.33-1.42.22-.43.53-.81.93-1.12.4-.32.88-.56 1.43-.74.56-.17 1.17-.26 1.85-.26.72 0 1.37.11 1.94.32.57.21 1.06.49 1.45.85.4.36.7.77.91 1.25.21.48.32.98.32 1.51h-2.21c0-.31-.05-.59-.15-.85-.1-.26-.24-.49-.44-.68-.2-.19-.45-.34-.76-.44-.3-.1-.66-.16-1.08-.16-.39 0-.73.05-1.02.13-.29.09-.53.21-.72.37-.19.16-.33.35-.42.56-.09.22-.13.46-.13.71 0 .48.22.87.67 1.19.45.32 1.13.61 2.05.88.72.21 1.34.45 1.87.71.53.26.97.55 1.32.87.35.33.6.7.77 1.1.17.41.26.87.26 1.38 0 .54-.11 1.02-.32 1.45-.22.43-.52.8-.92 1.1-.39.3-.87.53-1.43.7-.57.16-1.19.25-1.88.25-.62 0-1.23-.08-1.82-.25-.6-.17-1.14-.42-1.61-.75-.48-.337-.86-.76-1.15-1.26-.29-.5-.43-1.09-.43-1.77h2.22c0 .4.07.75.21 1.04.15.29.35.53.59.71.25.187.55.32.89.407.34.086.7.13 1.1.13.77 0 1.35-.16 1.74-.47.39-.32.59-.73.59-1.25zm12.26 0c0-.26-.04-.49-.12-.69-.07-.2-.21-.39-.41-.56-.2-.17-.48-.33-.84-.49-.35-.15-.81-.32-1.36-.48-.61-.18-1.18-.39-1.69-.62-.52-.23-.96-.5-1.33-.81-.38-.31-.67-.67-.88-1.07-.21-.4-.32-.87-.32-1.39 0-.51.12-.99.33-1.42.22-.43.53-.81.93-1.12.4-.32.88-.56 1.44-.74.55-.17 1.17-.26 1.84-.26.72 0 1.37.11 1.94.32.58.21 1.06.49 1.46.85.39.36.7.77.91 1.25.21.48.31.98.31 1.51h-2.21c0-.31-.05-.59-.15-.85-.09-.26-.24-.49-.44-.68-.2-.19-.45-.34-.76-.44-.3-.1-.66-.16-1.08-.16-.39 0-.73.05-1.02.13-.28.09-.52.21-.71.37-.19.16-.33.35-.42.56-.1.22-.14.46-.14.71 0 .48.22.87.67 1.19.45.32 1.13.61 2.05.88.72.21 1.35.45 1.87.71.53.26.97.55 1.32.87.35.33.61.7.78 1.1.17.41.25.87.25 1.38 0 .54-.11 1.02-.32 1.45-.21.43-.52.8-.91 1.1-.4.3-.88.53-1.44.7-.56.16-1.19.25-1.88.25-.62 0-1.22-.08-1.82-.25-.6-.17-1.13-.42-1.61-.75-.47-.337-.86-.76-1.15-1.26-.29-.5-.43-1.09-.43-1.77h2.22c0 .4.08.75.22 1.04.14.29.34.53.59.71.25.187.54.32.88.407.34.086.71.13 1.1.13.77 0 1.35-.16 1.74-.47.39-.32.59-.73.59-1.25zm13.05-2.41h-5.25v3.94h6.14V356h-8.37v-12.797h8.31v1.793h-6.08v3.533h5.25v1.75zm13.52-5.29h-3.99v11h-2.2V345h-3.96v-1.794h10.15V345zm9.77 7.71c0-.26-.04-.49-.11-.69-.08-.2-.22-.39-.42-.56-.2-.17-.48-.33-.84-.48-.35-.16-.81-.32-1.36-.49-.61-.18-1.17-.39-1.69-.62-.52-.23-.96-.5-1.33-.81-.37-.31-.67-.67-.88-1.07-.21-.4-.31-.87-.31-1.39 0-.51.11-.99.33-1.42.22-.43.53-.8.92-1.12.4-.31.88-.56 1.44-.74.55-.17 1.17-.26 1.84-.26.72 0 1.37.1 1.94.31.58.21 1.06.49 1.46.85.39.36.7.77.91 1.24.21.47.31.97.31 1.51h-2.21c0-.31-.05-.6-.14-.86-.1-.26-.25-.49-.45-.68-.2-.19-.45-.34-.75-.45-.31-.1-.67-.15-1.09-.15-.39 0-.73.05-1.02.13-.28.09-.52.21-.71.37-.19.16-.33.35-.42.56-.09.22-.14.46-.14.71 0 .48.22.87.67 1.19.45.32 1.14.61 2.05.88.73.21 1.35.45 1.88.71.52.26.96.55 1.31.87.35.32.61.69.78 1.1.17.4.25.86.25 1.37 0 .54-.1 1.02-.32 1.45-.21.43-.52.8-.91 1.1-.4.3-.88.54-1.44.7-.56.16-1.19.25-1.88.25-.61 0-1.22-.08-1.82-.25-.6-.17-1.13-.42-1.61-.76-.47-.34-.85-.76-1.14-1.26-.29-.5-.44-1.1-.44-1.78h2.23c0 .41.07.75.21 1.04.14.29.34.53.59.72.25.19.54.32.88.41.34.09.71.13 1.1.13.77 0 1.36-.16 1.75-.47.38-.31.58-.73.58-1.24z"/>
        </clipPath>
        <g clip-path="url(#ab)">
            <path fill="#83A6B9" fill-rule="nonzero" d="M935.65 338.027h155.243v23.148H935.65z"/>
        </g>
    </g>
</svg>